<svg width="44" height="15" viewBox="0 0 44 15" fill="none" xmlns="http://www.w3.org/2000/svg">
<path d="M10.912 0.0159492H12.944V14.832H10.912V0.0159492ZM5.05601 5.69595H8.20801V7.39195H5.05601V5.69595ZM7.79201 0.33595H9.77601V14.176H7.79201V0.33595ZM4.57601 1.75995H6.62401C6.62401 3.16795 6.45868 4.47995 6.12801 5.69595C5.79734 6.91195 5.23734 8.02662 4.44801 9.03995C3.66934 10.0533 2.58668 10.96 1.20001 11.76L1.07586e-05 10.272C1.12001 9.59995 2.01068 8.86928 2.67201 8.07995C3.34401 7.27995 3.82934 6.39995 4.12801 5.43995C4.42668 4.46928 4.57601 3.38662 4.57601 2.19195V1.75995ZM0.816011 1.75995H5.23201V3.47195H0.816011V1.75995ZM18.5108 1.16795H20.2548V3.31195C20.2548 4.27195 20.1694 5.19462 19.9988 6.07995C19.8281 6.95462 19.5668 7.77595 19.2148 8.54395C18.8734 9.30128 18.4308 9.97328 17.8868 10.56C17.3534 11.136 16.7188 11.5946 15.9828 11.936L14.7188 10.176C15.3694 9.88795 15.9294 9.50928 16.3988 9.03995C16.8788 8.55995 17.2734 8.01595 17.5828 7.40795C17.8921 6.78928 18.1214 6.13328 18.2708 5.43995C18.4308 4.74662 18.5108 4.03728 18.5108 3.31195V1.16795ZM18.9268 1.16795H20.6548V3.31195C20.6548 4.00528 20.7294 4.68262 20.8788 5.34395C21.0281 6.00528 21.2521 6.62928 21.5508 7.21595C21.8601 7.80262 22.2441 8.32528 22.7028 8.78395C23.1721 9.23195 23.7214 9.58928 24.3508 9.85595L23.1188 11.584C22.4041 11.2533 21.7801 10.8106 21.2468 10.2559C20.7241 9.70128 20.2921 9.06128 19.9508 8.33595C19.6094 7.59995 19.3534 6.81062 19.1828 5.96795C19.0121 5.11462 18.9268 4.22928 18.9268 3.31195V1.16795ZM25.0708 -5.05447e-05H27.1988V14.864H25.0708V-5.05447e-05ZM29.9175 1.23195H37.8375V2.92795H29.9175V1.23195ZM29.7575 8.97595L29.5335 7.24795C30.3762 7.24795 31.2935 7.24262 32.2855 7.23195C33.2882 7.21062 34.3122 7.17328 35.3575 7.11995C36.4028 7.05595 37.4002 6.96528 38.3495 6.84795L38.4775 8.39995C37.5175 8.57062 36.5202 8.69862 35.4855 8.78395C34.4508 8.85862 33.4428 8.91195 32.4615 8.94395C31.4802 8.96528 30.5788 8.97595 29.7575 8.97595ZM31.0855 2.54395H33.1335V7.58395H31.0855V2.54395ZM34.6215 2.54395H36.6695V7.58395H34.6215V2.54395ZM39.1495 0.03195H41.2775V10.944H39.1495V0.03195ZM40.6855 4.20795H43.2455V5.95195H40.6855V4.20795ZM31.7255 12.88H41.8055V14.592H31.7255V12.88ZM31.7255 9.91995H33.8695V13.328H31.7255V9.91995Z" fill="white"/>
</svg>
