<svg width="375" height="812" viewBox="0 0 375 812" fill="none" xmlns="http://www.w3.org/2000/svg">
<g clip-path="url(#clip0_1_2)">
<path d="M375 0H0V850H375V0Z" fill="#FAFAFA"/>
<path opacity="0.1" d="M-50 100C32.8427 100 100 32.8427 100 -50C100 -132.843 32.8427 -200 -50 -200C-132.843 -200 -200 -132.843 -200 -50C-200 32.8427 -132.843 100 -50 100Z" fill="#4CAF50"/>
<path opacity="0.08" d="M425 300C535.457 300 625 210.457 625 100C625 -10.4569 535.457 -100 425 -100C314.543 -100 225 -10.4569 225 100C225 210.457 314.543 300 425 300Z" fill="#00C73C"/>
<path d="M187.5 230C215.114 230 237.5 207.614 237.5 180C237.5 152.386 215.114 130 187.5 130C159.886 130 137.5 152.386 137.5 180C137.5 207.614 159.886 230 187.5 230Z" fill="#4CAF50"/>
<path d="M176.303 178.236H187.834L185.514 189.293C184.154 190.172 182.484 190.916 180.504 191.525C178.535 192.135 176.525 192.439 174.475 192.439C171.287 192.439 168.844 191.719 167.145 190.277C164.824 188.309 163.664 185.455 163.664 181.717C163.664 179.209 164.162 176.807 165.158 174.51C166.354 171.744 168.053 169.6 170.256 168.076C172.459 166.553 175.049 165.791 178.025 165.791C181.002 165.791 183.387 166.482 185.18 167.865C186.984 169.248 188.18 171.264 188.766 173.912L183.826 174.475C183.393 173.021 182.689 171.926 181.717 171.188C180.756 170.449 179.543 170.08 178.078 170.08C176.367 170.08 174.797 170.525 173.367 171.416C171.938 172.307 170.818 173.684 170.01 175.547C169.201 177.41 168.797 179.443 168.797 181.646C168.797 183.814 169.289 185.42 170.273 186.463C171.258 187.494 172.699 188.01 174.598 188.01C175.734 188.01 176.9 187.852 178.096 187.535C179.291 187.207 180.322 186.82 181.189 186.375L181.98 182.543H175.406L176.303 178.236ZM210.58 192H205.641L198.68 174.686L195.059 192H190.119L195.498 166.23H200.455L207.434 183.475L211.037 166.23H215.959L210.58 192Z" fill="white"/>
<path d="M152.895 245.544H169.303V248.512H152.895V245.544ZM150.011 254.336H173.503V257.304H150.011V254.336ZM159.811 255.456H163.535V260.72H159.811V255.456ZM167.063 245.544H170.703V247.28C170.703 248.269 170.675 249.436 170.619 250.78C170.563 252.124 170.349 253.673 169.975 255.428L166.335 255.064C166.709 253.347 166.923 251.863 166.979 250.612C167.035 249.361 167.063 248.251 167.063 247.28V245.544ZM159.755 261.7H162.919V262.4C162.919 263.389 162.705 264.332 162.275 265.228C161.846 266.105 161.193 266.899 160.315 267.608C159.457 268.317 158.402 268.915 157.151 269.4C155.901 269.885 154.445 270.212 152.783 270.38L151.523 267.58C152.942 267.431 154.165 267.179 155.191 266.824C156.218 266.469 157.067 266.059 157.739 265.592C158.411 265.107 158.915 264.593 159.251 264.052C159.587 263.492 159.755 262.941 159.755 262.4V261.7ZM160.399 261.7H163.563V262.4C163.563 262.96 163.722 263.52 164.039 264.08C164.375 264.64 164.879 265.163 165.551 265.648C166.223 266.115 167.073 266.516 168.099 266.852C169.126 267.188 170.358 267.431 171.795 267.58L170.563 270.38C168.902 270.212 167.437 269.895 166.167 269.428C164.917 268.961 163.862 268.383 163.003 267.692C162.145 266.983 161.491 266.18 161.043 265.284C160.614 264.388 160.399 263.427 160.399 262.4V261.7ZM192.429 244.536H196.153V259.012H192.429V244.536ZM195.145 250.332H199.597V253.356H195.145V250.332ZM178.513 260.16H186.745V270.492H183.077V263.128H178.513V260.16ZM176.805 245.964H180.529V256.66H176.805V245.964ZM176.805 254.616H178.933C180.688 254.616 182.508 254.551 184.393 254.42C186.297 254.271 188.248 253.991 190.245 253.58L190.665 256.604C188.574 257.033 186.549 257.323 184.589 257.472C182.629 257.603 180.744 257.668 178.933 257.668H176.805V254.616ZM187.893 260.16H196.153V270.492H192.485V263.128H187.893V260.16ZM201.499 255.12H224.963V258.06H201.499V255.12ZM211.327 252.376H215.051V255.988H211.327V252.376ZM204.411 245.32H221.995V253.44H204.411V245.32ZM218.327 248.176H208.051V250.584H218.327V248.176ZM204.187 259.376H222.107V266.04H207.911V268.308H204.215V263.436H218.439V262.12H204.187V259.376ZM204.215 267.496H222.807V270.324H204.215V267.496Z" fill="#1A1A1A"/>
<path d="M81.97 286.22H82.894V287.914C82.894 288.539 82.7774 289.16 82.544 289.776C82.3107 290.392 81.9747 290.947 81.536 291.442C81.1067 291.937 80.5794 292.324 79.954 292.604L79.324 291.708C79.8747 291.465 80.346 291.139 80.738 290.728C81.1394 290.308 81.4427 289.851 81.648 289.356C81.8627 288.861 81.97 288.381 81.97 287.914V286.22ZM82.166 286.22H83.09V287.914C83.09 288.371 83.188 288.829 83.384 289.286C83.5894 289.734 83.8834 290.14 84.266 290.504C84.658 290.859 85.12 291.143 85.652 291.358L85.036 292.254C84.4294 292.011 83.9114 291.666 83.482 291.218C83.0527 290.77 82.726 290.261 82.502 289.692C82.278 289.123 82.166 288.53 82.166 287.914V286.22ZM88.886 285.436H89.992V293.248H88.886V285.436ZM86.87 288.824H89.25V289.776H86.87V288.824ZM86.17 285.674H87.262V292.842H86.17V285.674ZM85.834 293.528C86.702 293.528 87.4487 293.617 88.074 293.794C88.7087 293.971 89.1987 294.233 89.544 294.578C89.8894 294.914 90.062 295.32 90.062 295.796C90.062 296.272 89.8894 296.678 89.544 297.014C89.1987 297.359 88.7087 297.621 88.074 297.798C87.4487 297.975 86.702 298.064 85.834 298.064C84.966 298.064 84.2147 297.975 83.58 297.798C82.9454 297.621 82.4554 297.359 82.11 297.014C81.774 296.678 81.606 296.272 81.606 295.796C81.606 295.32 81.774 294.914 82.11 294.578C82.4554 294.233 82.9454 293.971 83.58 293.794C84.2147 293.617 84.966 293.528 85.834 293.528ZM85.834 294.424C84.882 294.424 84.1307 294.545 83.58 294.788C83.0294 295.031 82.754 295.367 82.754 295.796C82.754 296.225 83.0294 296.561 83.58 296.804C84.1307 297.047 84.882 297.168 85.834 297.168C86.4687 297.168 87.0147 297.112 87.472 297C87.9294 296.897 88.2794 296.743 88.522 296.538C88.774 296.333 88.9 296.085 88.9 295.796C88.9 295.367 88.6247 295.031 88.074 294.788C87.5327 294.545 86.786 294.424 85.834 294.424ZM100.855 285.422H102.017V292.898H100.855V285.422ZM101.527 288.656H103.865V289.636H101.527V288.656ZM93.8129 293.472H102.017V296.034H94.9889V297.364H93.8409V295.264H100.869V294.284H93.8129V293.472ZM93.8409 297.126H102.493V297.952H93.8409V297.126ZM95.5209 290.616H96.6689V292.226H95.5209V290.616ZM92.2729 292.604L92.1329 291.75C92.8796 291.75 93.7056 291.745 94.6109 291.736C95.5163 291.717 96.4403 291.685 97.3829 291.638C98.3256 291.582 99.2309 291.493 100.099 291.372L100.183 292.128C99.2869 292.277 98.3676 292.389 97.4249 292.464C96.4916 292.529 95.5816 292.571 94.6949 292.59C93.8176 292.599 93.0103 292.604 92.2729 292.604ZM92.4549 286.388H99.7209V287.214H92.4549V286.388ZM96.0809 287.62C96.9769 287.62 97.6909 287.765 98.2229 288.054C98.7643 288.343 99.0349 288.749 99.0349 289.272C99.0349 289.804 98.7643 290.219 98.2229 290.518C97.6909 290.807 96.9769 290.952 96.0809 290.952C95.1849 290.952 94.4663 290.807 93.9249 290.518C93.3929 290.219 93.1269 289.804 93.1269 289.272C93.1269 288.749 93.3929 288.343 93.9249 288.054C94.4663 287.765 95.1849 287.62 96.0809 287.62ZM96.0809 288.39C95.5116 288.39 95.0589 288.469 94.7229 288.628C94.3963 288.787 94.2329 289.001 94.2329 289.272C94.2329 289.552 94.3963 289.776 94.7229 289.944C95.0589 290.103 95.5116 290.182 96.0809 290.182C96.6503 290.182 97.0983 290.103 97.4249 289.944C97.7609 289.776 97.9289 289.552 97.9289 289.272C97.9289 289.001 97.7609 288.787 97.4249 288.628C97.0983 288.469 96.6503 288.39 96.0809 288.39ZM95.5209 285.31H96.6689V286.822H95.5209V285.31ZM105.082 291.778H116.548V292.73H105.082V291.778ZM110.22 289.846H111.368V292.212H110.22V289.846ZM110.206 285.618H111.2V286.192C111.2 286.64 111.111 287.065 110.934 287.466C110.757 287.867 110.505 288.236 110.178 288.572C109.861 288.908 109.492 289.207 109.072 289.468C108.652 289.72 108.199 289.939 107.714 290.126C107.229 290.303 106.725 290.434 106.202 290.518L105.768 289.594C106.216 289.529 106.655 289.426 107.084 289.286C107.523 289.137 107.929 288.959 108.302 288.754C108.675 288.539 109.002 288.297 109.282 288.026C109.571 287.755 109.795 287.466 109.954 287.158C110.122 286.85 110.206 286.528 110.206 286.192V285.618ZM110.388 285.618H111.382V286.192C111.382 286.528 111.461 286.85 111.62 287.158C111.779 287.466 112.003 287.755 112.292 288.026C112.581 288.287 112.913 288.525 113.286 288.74C113.659 288.955 114.061 289.137 114.49 289.286C114.929 289.426 115.372 289.529 115.82 289.594L115.372 290.518C114.859 290.434 114.359 290.303 113.874 290.126C113.398 289.939 112.945 289.715 112.516 289.454C112.096 289.193 111.723 288.899 111.396 288.572C111.079 288.236 110.831 287.872 110.654 287.48C110.477 287.079 110.388 286.649 110.388 286.192V285.618ZM106.356 293.962H115.106V298.092H113.944V294.886H106.356V293.962ZM125.217 286.402C125.843 286.402 126.393 286.584 126.869 286.948C127.345 287.303 127.719 287.811 127.989 288.474C128.26 289.137 128.395 289.916 128.395 290.812C128.395 291.708 128.26 292.487 127.989 293.15C127.719 293.813 127.345 294.326 126.869 294.69C126.393 295.054 125.843 295.236 125.217 295.236C124.601 295.236 124.051 295.054 123.565 294.69C123.089 294.326 122.716 293.813 122.445 293.15C122.175 292.487 122.039 291.708 122.039 290.812C122.039 289.916 122.175 289.137 122.445 288.474C122.716 287.811 123.089 287.303 123.565 286.948C124.051 286.584 124.601 286.402 125.217 286.402ZM125.217 287.438C124.816 287.438 124.457 287.578 124.139 287.858C123.831 288.129 123.589 288.521 123.411 289.034C123.234 289.538 123.145 290.131 123.145 290.812C123.145 291.493 123.234 292.091 123.411 292.604C123.589 293.108 123.831 293.5 124.139 293.78C124.457 294.06 124.821 294.2 125.231 294.2C125.633 294.2 125.987 294.06 126.295 293.78C126.613 293.5 126.855 293.108 127.023 292.604C127.201 292.091 127.289 291.493 127.289 290.812C127.289 290.131 127.201 289.538 127.023 289.034C126.855 288.521 126.613 288.129 126.295 287.858C125.987 287.578 125.628 287.438 125.217 287.438ZM130.425 285.422H131.587V298.092H130.425V285.422ZM131.321 290.476H133.659V291.456H131.321V290.476ZM143.934 285.422H145.096V298.106H143.934V285.422ZM138.418 286.402C139.043 286.402 139.594 286.584 140.07 286.948C140.555 287.303 140.933 287.811 141.204 288.474C141.484 289.137 141.624 289.916 141.624 290.812C141.624 291.708 141.484 292.487 141.204 293.15C140.933 293.813 140.555 294.326 140.07 294.69C139.594 295.054 139.043 295.236 138.418 295.236C137.793 295.236 137.237 295.054 136.752 294.69C136.267 294.326 135.884 293.813 135.604 293.15C135.333 292.487 135.198 291.708 135.198 290.812C135.198 289.916 135.333 289.137 135.604 288.474C135.884 287.811 136.267 287.303 136.752 286.948C137.237 286.584 137.793 286.402 138.418 286.402ZM138.418 287.438C137.998 287.438 137.629 287.578 137.312 287.858C137.004 288.129 136.761 288.521 136.584 289.034C136.407 289.538 136.318 290.131 136.318 290.812C136.318 291.493 136.407 292.091 136.584 292.604C136.761 293.108 137.004 293.5 137.312 293.78C137.629 294.06 137.998 294.2 138.418 294.2C138.829 294.2 139.188 294.06 139.496 293.78C139.813 293.5 140.061 293.108 140.238 292.604C140.415 292.091 140.504 291.493 140.504 290.812C140.504 290.131 140.415 289.538 140.238 289.034C140.061 288.521 139.813 288.129 139.496 287.858C139.188 287.578 138.829 287.438 138.418 287.438ZM156.813 285.422H157.975V298.106H156.813V285.422ZM148.427 293.976H149.449C150.289 293.976 151.045 293.967 151.717 293.948C152.389 293.929 153.024 293.887 153.621 293.822C154.228 293.757 154.844 293.668 155.469 293.556L155.581 294.536C154.946 294.657 154.321 294.751 153.705 294.816C153.089 294.872 152.44 294.914 151.759 294.942C151.078 294.961 150.308 294.97 149.449 294.97H148.427V293.976ZM148.427 286.626H154.405V287.592H149.589V294.34H148.427V286.626ZM163.868 286.402C164.484 286.402 165.03 286.584 165.506 286.948C165.982 287.303 166.351 287.811 166.612 288.474C166.883 289.137 167.018 289.916 167.018 290.812C167.018 291.708 166.883 292.487 166.612 293.15C166.351 293.813 165.982 294.326 165.506 294.69C165.03 295.054 164.484 295.236 163.868 295.236C163.261 295.236 162.715 295.054 162.23 294.69C161.754 294.326 161.381 293.813 161.11 293.15C160.849 292.487 160.718 291.708 160.718 290.812C160.718 289.916 160.849 289.137 161.11 288.474C161.381 287.811 161.754 287.303 162.23 286.948C162.715 286.584 163.261 286.402 163.868 286.402ZM163.868 287.438C163.467 287.438 163.112 287.578 162.804 287.858C162.496 288.129 162.253 288.521 162.076 289.034C161.908 289.538 161.824 290.131 161.824 290.812C161.824 291.493 161.908 292.091 162.076 292.604C162.253 293.108 162.496 293.5 162.804 293.78C163.112 294.06 163.467 294.2 163.868 294.2C164.279 294.2 164.638 294.06 164.946 293.78C165.254 293.5 165.492 293.108 165.66 292.604C165.837 292.091 165.926 291.493 165.926 290.812C165.926 290.131 165.837 289.538 165.66 289.034C165.492 288.521 165.254 288.129 164.946 287.858C164.638 287.578 164.279 287.438 163.868 287.438ZM169.762 285.422H170.91V298.106H169.762V285.422ZM166.64 290.252H170.28V291.19H166.64V290.252ZM177.269 289.93H188.735V290.882H177.269V289.93ZM182.407 290.532H183.555V293.01H182.407V290.532ZM178.627 292.422H187.265V295.6H179.817V297.434H178.669V294.704H186.117V293.36H178.627V292.422ZM178.669 297.014H187.671V297.952H178.669V297.014ZM178.375 285.884H181.721V286.836H178.375V285.884ZM181.301 285.884H182.435V286.332C182.435 286.565 182.426 286.883 182.407 287.284C182.389 287.676 182.337 288.138 182.253 288.67C182.179 289.193 182.043 289.771 181.847 290.406L180.741 290.168C180.928 289.543 181.059 288.987 181.133 288.502C181.217 288.017 181.264 287.592 181.273 287.228C181.292 286.864 181.301 286.565 181.301 286.332V285.884ZM183.373 285.884H186.775V286.836H183.373V285.884ZM186.257 285.884H187.377V286.332C187.377 286.715 187.354 287.247 187.307 287.928C187.27 288.609 187.125 289.421 186.873 290.364L185.739 290.21C186.001 289.277 186.15 288.493 186.187 287.858C186.234 287.214 186.257 286.705 186.257 286.332V285.884ZM195.594 288.6H197.75V289.552H195.594V288.6ZM190.722 291.344H191.52C192.183 291.344 192.766 291.339 193.27 291.33C193.784 291.311 194.264 291.279 194.712 291.232C195.16 291.176 195.613 291.101 196.07 291.008L196.196 291.932C195.711 292.035 195.24 292.114 194.782 292.17C194.325 292.217 193.835 292.249 193.312 292.268C192.799 292.277 192.202 292.282 191.52 292.282H190.722V291.344ZM190.722 286.248H195.51V287.2H191.842V291.89H190.722V286.248ZM191.492 288.74H195.006V289.65H191.492V288.74ZM199.71 285.422H200.816V293.038H199.71V285.422ZM197.26 285.646H198.366V292.926H197.26V285.646ZM192.5 293.64H200.816V297.924H192.5V293.64ZM199.682 294.578H193.648V296.972H199.682V294.578ZM203.027 290.714H214.479V291.652H203.027V290.714ZM204.553 288.754H213.107V289.692H204.553V288.754ZM204.553 285.842H212.981V286.78H205.701V289.496H204.553V285.842ZM204.413 292.758H212.995V295.726H205.575V297.322H204.441V294.858H211.861V293.668H204.413V292.758ZM204.441 297.014H213.373V297.938H204.441V297.014ZM221.618 285.646C223.018 285.646 224.11 285.837 224.894 286.22C225.678 286.593 226.07 287.13 226.07 287.83C226.07 288.539 225.678 289.085 224.894 289.468C224.11 289.841 223.018 290.028 221.618 290.028C220.227 290.028 219.135 289.841 218.342 289.468C217.558 289.085 217.166 288.539 217.166 287.83C217.166 287.13 217.558 286.593 218.342 286.22C219.135 285.837 220.227 285.646 221.618 285.646ZM221.618 286.514C220.937 286.514 220.353 286.565 219.868 286.668C219.383 286.771 219.009 286.92 218.748 287.116C218.496 287.312 218.37 287.55 218.37 287.83C218.37 288.11 218.496 288.353 218.748 288.558C219.009 288.754 219.383 288.903 219.868 289.006C220.353 289.099 220.937 289.146 221.618 289.146C222.309 289.146 222.897 289.099 223.382 289.006C223.867 288.903 224.236 288.754 224.488 288.558C224.749 288.353 224.88 288.11 224.88 287.83C224.88 287.55 224.749 287.312 224.488 287.116C224.236 286.92 223.867 286.771 223.382 286.668C222.897 286.565 222.309 286.514 221.618 286.514ZM215.906 290.882H227.344V291.82H215.906V290.882ZM217.292 292.898H225.874V295.754H218.454V297.28H217.32V294.9H224.74V293.794H217.292V292.898ZM217.32 297.042H226.252V297.952H217.32V297.042ZM233.199 286.57H239.023V292.422H233.199V286.57ZM237.889 287.508H234.333V291.484H237.889V287.508ZM241.347 285.422H242.509V294.704H241.347V285.422ZM242.145 289.272H244.371V290.238H242.145V289.272ZM234.627 296.86H243.069V297.812H234.627V296.86ZM234.627 293.822H235.775V297.266H234.627V293.822ZM254.982 290.476H257.306V291.442H254.982V290.476ZM254.128 285.422H255.29V298.078H254.128V285.422ZM246.064 286.668H247.212V294.508H246.064V286.668ZM246.064 293.906H247.072C247.996 293.906 248.944 293.864 249.914 293.78C250.894 293.696 251.907 293.547 252.952 293.332L253.092 294.312C252.01 294.527 250.974 294.676 249.984 294.76C249.004 294.835 248.034 294.872 247.072 294.872H246.064V293.906ZM258.439 295.516H269.919V296.482H258.439V295.516ZM263.577 292.478H264.725V295.796H263.577V292.478ZM259.783 286.318H260.945V288.572H267.385V286.318H268.533V292.8H259.783V286.318ZM260.945 289.524V291.848H267.385V289.524H260.945ZM276.302 289.958H278.738V290.924H276.302V289.958ZM273.95 286.612H274.86V289.034C274.86 289.687 274.79 290.331 274.65 290.966C274.519 291.601 274.323 292.198 274.062 292.758C273.81 293.318 273.502 293.822 273.138 294.27C272.774 294.718 272.363 295.082 271.906 295.362L271.178 294.494C271.607 294.233 271.995 293.906 272.34 293.514C272.685 293.122 272.975 292.683 273.208 292.198C273.451 291.703 273.633 291.19 273.754 290.658C273.885 290.117 273.95 289.575 273.95 289.034V286.612ZM274.174 286.612H275.07V288.992C275.07 289.496 275.126 290.005 275.238 290.518C275.359 291.022 275.527 291.507 275.742 291.974C275.966 292.431 276.241 292.851 276.568 293.234C276.895 293.617 277.263 293.934 277.674 294.186L277.016 295.082C276.559 294.802 276.153 294.447 275.798 294.018C275.443 293.579 275.145 293.089 274.902 292.548C274.659 291.997 274.477 291.419 274.356 290.812C274.235 290.205 274.174 289.599 274.174 288.992V286.612ZM280.964 285.422H282.084V298.092H280.964V285.422ZM278.388 285.688H279.48V297.448H278.388V285.688ZM287.011 291.946H288.159V295.726H287.011V291.946ZM291.687 291.946H292.849V295.726H291.687V291.946ZM284.197 295.502H295.677V296.468H284.197V295.502ZM289.909 286.22C290.805 286.22 291.598 286.355 292.289 286.626C292.98 286.897 293.521 287.275 293.913 287.76C294.314 288.245 294.515 288.819 294.515 289.482C294.515 290.135 294.314 290.709 293.913 291.204C293.521 291.689 292.98 292.067 292.289 292.338C291.598 292.599 290.805 292.73 289.909 292.73C289.022 292.73 288.229 292.599 287.529 292.338C286.838 292.067 286.297 291.689 285.905 291.204C285.513 290.709 285.317 290.135 285.317 289.482C285.317 288.819 285.513 288.245 285.905 287.76C286.297 287.275 286.838 286.897 287.529 286.626C288.229 286.355 289.022 286.22 289.909 286.22ZM289.909 287.144C289.237 287.144 288.64 287.242 288.117 287.438C287.594 287.634 287.184 287.909 286.885 288.264C286.586 288.609 286.437 289.015 286.437 289.482C286.437 289.949 286.586 290.359 286.885 290.714C287.184 291.059 287.594 291.33 288.117 291.526C288.64 291.722 289.237 291.82 289.909 291.82C290.59 291.82 291.192 291.722 291.715 291.526C292.238 291.33 292.648 291.059 292.947 290.714C293.246 290.359 293.395 289.949 293.395 289.482C293.395 289.015 293.246 288.609 292.947 288.264C292.648 287.909 292.238 287.634 291.715 287.438C291.192 287.242 290.59 287.144 289.909 287.144Z" fill="#666666"/>
<g filter="url(#filter0_f_1_2)">
<path d="M329 340H46C37.1634 340 30 348.933 30 359.953V744.047C30 755.067 37.1634 764 46 764H329C337.837 764 345 755.067 345 744.047V359.953C345 348.933 337.837 340 329 340Z" fill="white"/>
</g>
<path d="M160.722 375.58H177.502V377.74H160.722V375.58ZM167.762 372.06H170.402V376.44H167.762V372.06ZM162.622 362.44H175.602V368.62H165.282V371.72H162.642V366.54H172.962V364.56H162.622V362.44ZM162.642 370.68H176.022V372.8H162.642V370.68ZM180.841 362.94H192.561V365.06H180.841V362.94ZM179.121 375.2H195.881V377.36H179.121V375.2ZM191.161 362.94H193.821V365.14C193.821 366.007 193.807 366.887 193.781 367.78C193.767 368.673 193.714 369.627 193.621 370.64C193.541 371.653 193.381 372.8 193.141 374.08L190.481 373.84C190.721 372.653 190.881 371.56 190.961 370.56C191.054 369.56 191.107 368.62 191.121 367.74C191.147 366.847 191.161 365.98 191.161 365.14V362.94ZM210.239 361.26H212.899V374.56H210.239V361.26ZM200.559 377.32H213.379V379.46H200.559V377.32ZM200.559 373.24H203.219V378.2H200.559V373.24ZM202.819 362.44C203.766 362.44 204.619 362.64 205.379 363.04C206.139 363.44 206.739 363.993 207.179 364.7C207.633 365.407 207.859 366.22 207.859 367.14C207.859 368.033 207.633 368.84 207.179 369.56C206.739 370.267 206.139 370.827 205.379 371.24C204.619 371.64 203.766 371.84 202.819 371.84C201.873 371.84 201.019 371.64 200.259 371.24C199.499 370.827 198.893 370.267 198.439 369.56C197.999 368.84 197.779 368.033 197.779 367.14C197.779 366.22 197.999 365.407 198.439 364.7C198.893 363.993 199.499 363.44 200.259 363.04C201.019 362.64 201.873 362.44 202.819 362.44ZM202.819 364.72C202.366 364.72 201.953 364.82 201.579 365.02C201.206 365.207 200.913 365.48 200.699 365.84C200.486 366.187 200.379 366.62 200.379 367.14C200.379 367.633 200.486 368.06 200.699 368.42C200.913 368.767 201.206 369.04 201.579 369.24C201.953 369.427 202.366 369.52 202.819 369.52C203.273 369.52 203.686 369.427 204.059 369.24C204.433 369.04 204.726 368.767 204.939 368.42C205.153 368.06 205.259 367.633 205.259 367.14C205.259 366.62 205.153 366.187 204.939 365.84C204.726 365.48 204.433 365.207 204.059 365.02C203.686 364.82 203.273 364.72 202.819 364.72Z" fill="#1A1A1A"/>
<path d="M317 410H58C53.5817 410 50 413.582 50 418V452C50 456.418 53.5817 460 58 460H317C321.418 460 325 456.418 325 452V418C325 413.582 321.418 410 317 410Z" fill="#F8F8F8" stroke="#E0E0E0"/>
<path d="M75.605 426.595H76.85V440.185H75.605V426.595ZM69.695 427.645C70.365 427.645 70.955 427.84 71.465 428.23C71.985 428.61 72.39 429.155 72.68 429.865C72.98 430.575 73.13 431.41 73.13 432.37C73.13 433.33 72.98 434.165 72.68 434.875C72.39 435.585 71.985 436.135 71.465 436.525C70.955 436.915 70.365 437.11 69.695 437.11C69.025 437.11 68.43 436.915 67.91 436.525C67.39 436.135 66.98 435.585 66.68 434.875C66.39 434.165 66.245 433.33 66.245 432.37C66.245 431.41 66.39 430.575 66.68 429.865C66.98 429.155 67.39 428.61 67.91 428.23C68.43 427.84 69.025 427.645 69.695 427.645ZM69.695 428.755C69.245 428.755 68.85 428.905 68.51 429.205C68.18 429.495 67.92 429.915 67.73 430.465C67.54 431.005 67.445 431.64 67.445 432.37C67.445 433.1 67.54 433.74 67.73 434.29C67.92 434.83 68.18 435.25 68.51 435.55C68.85 435.85 69.245 436 69.695 436C70.135 436 70.52 435.85 70.85 435.55C71.19 435.25 71.455 434.83 71.645 434.29C71.835 433.74 71.93 433.1 71.93 432.37C71.93 431.64 71.835 431.005 71.645 430.465C71.455 429.915 71.19 429.495 70.85 429.205C70.52 428.905 70.135 428.755 69.695 428.755ZM80.0288 428.17H85.2038V436.525H80.0288V428.17ZM84.0338 429.16H81.1988V435.535H84.0338V429.16ZM89.8838 426.595H91.0838V440.17H89.8838V426.595ZM84.5888 431.71H87.7088V432.73H84.5888V431.71ZM87.1838 426.88H88.3688V439.48H87.1838V426.88ZM97.1577 427.09C97.8377 427.09 98.4377 427.22 98.9577 427.48C99.4877 427.73 99.9027 428.08 100.203 428.53C100.503 428.98 100.653 429.505 100.653 430.105C100.653 430.695 100.503 431.22 100.203 431.68C99.9027 432.13 99.4877 432.48 98.9577 432.73C98.4377 432.98 97.8377 433.105 97.1577 433.105C96.4877 433.105 95.8877 432.98 95.3577 432.73C94.8277 432.48 94.4077 432.13 94.0977 431.68C93.7977 431.22 93.6477 430.695 93.6477 430.105C93.6477 429.505 93.7977 428.98 94.0977 428.53C94.4077 428.08 94.8277 427.73 95.3577 427.48C95.8877 427.22 96.4877 427.09 97.1577 427.09ZM97.1577 428.125C96.7177 428.125 96.3227 428.21 95.9727 428.38C95.6327 428.54 95.3627 428.77 95.1627 429.07C94.9627 429.37 94.8627 429.715 94.8627 430.105C94.8627 430.495 94.9627 430.84 95.1627 431.14C95.3627 431.43 95.6327 431.66 95.9727 431.83C96.3227 432 96.7177 432.085 97.1577 432.085C97.5977 432.085 97.9877 432 98.3277 431.83C98.6777 431.66 98.9527 431.43 99.1527 431.14C99.3527 430.84 99.4527 430.495 99.4527 430.105C99.4527 429.715 99.3527 429.37 99.1527 429.07C98.9527 428.77 98.6777 428.54 98.3277 428.38C97.9877 428.21 97.5977 428.125 97.1577 428.125ZM103.218 426.595H104.463V433.54H103.218V426.595ZM95.6877 434.215H104.463V437.5H96.9327V439.54H95.7327V436.57H103.233V435.205H95.6877V434.215ZM95.7327 438.985H104.928V439.99H95.7327V438.985ZM117.786 432.865H122.661V433.885H117.786V432.865ZM111.321 437.395H123.621V438.445H111.321V437.395ZM116.811 434.56H118.041V437.89H116.811V434.56ZM117.786 427.855H122.526V428.89H119.031V433.405H117.786V427.855ZM112.371 427.885H116.961V428.905H113.616V433.36H112.371V427.885ZM112.371 432.85H113.136C113.576 432.85 114.006 432.84 114.426 432.82C114.856 432.8 115.291 432.765 115.731 432.715C116.171 432.655 116.621 432.575 117.081 432.475L117.201 433.51C116.711 433.62 116.241 433.705 115.791 433.765C115.341 433.815 114.901 433.85 114.471 433.87C114.041 433.88 113.596 433.885 113.136 433.885H112.371V432.85ZM126.77 430.675H135.995V431.68H126.77V430.675ZM125.105 433.495H137.405V434.515H125.105V433.495ZM126.77 427.09H128V431.185H126.77V427.09ZM126.68 438.82H136.07V439.84H126.68V438.82ZM126.68 435.88H127.925V439.09H126.68V435.88ZM146.694 427.645C147.364 427.645 147.954 427.84 148.464 428.23C148.974 428.61 149.374 429.155 149.664 429.865C149.954 430.575 150.099 431.41 150.099 432.37C150.099 433.33 149.954 434.165 149.664 434.875C149.374 435.585 148.974 436.135 148.464 436.525C147.954 436.915 147.364 437.11 146.694 437.11C146.034 437.11 145.444 436.915 144.924 436.525C144.414 436.135 144.014 435.585 143.724 434.875C143.434 434.165 143.289 433.33 143.289 432.37C143.289 431.41 143.434 430.575 143.724 429.865C144.014 429.155 144.414 428.61 144.924 428.23C145.444 427.84 146.034 427.645 146.694 427.645ZM146.694 428.755C146.264 428.755 145.879 428.905 145.539 429.205C145.209 429.495 144.949 429.915 144.759 430.465C144.569 431.005 144.474 431.64 144.474 432.37C144.474 433.1 144.569 433.74 144.759 434.29C144.949 434.83 145.209 435.25 145.539 435.55C145.879 435.85 146.269 436 146.709 436C147.139 436 147.519 435.85 147.849 435.55C148.189 435.25 148.449 434.83 148.629 434.29C148.819 433.74 148.914 433.1 148.914 432.37C148.914 431.64 148.819 431.005 148.629 430.465C148.449 429.915 148.189 429.495 147.849 429.205C147.519 428.905 147.134 428.755 146.694 428.755ZM152.274 426.595H153.519V440.17H152.274V426.595ZM153.234 432.01H155.739V433.06H153.234V432.01ZM166.748 426.595H167.993V440.185H166.748V426.595ZM160.838 427.645C161.508 427.645 162.098 427.84 162.608 428.23C163.128 428.61 163.533 429.155 163.823 429.865C164.123 430.575 164.273 431.41 164.273 432.37C164.273 433.33 164.123 434.165 163.823 434.875C163.533 435.585 163.128 436.135 162.608 436.525C162.098 436.915 161.508 437.11 160.838 437.11C160.168 437.11 159.573 436.915 159.053 436.525C158.533 436.135 158.123 435.585 157.823 434.875C157.533 434.165 157.388 433.33 157.388 432.37C157.388 431.41 157.533 430.575 157.823 429.865C158.123 429.155 158.533 428.61 159.053 428.23C159.573 427.84 160.168 427.645 160.838 427.645ZM160.838 428.755C160.388 428.755 159.993 428.905 159.653 429.205C159.323 429.495 159.063 429.915 158.873 430.465C158.683 431.005 158.588 431.64 158.588 432.37C158.588 433.1 158.683 433.74 158.873 434.29C159.063 434.83 159.323 435.25 159.653 435.55C159.993 435.85 160.388 436 160.838 436C161.278 436 161.663 435.85 161.993 435.55C162.333 435.25 162.598 434.83 162.788 434.29C162.978 433.74 163.073 433.1 163.073 432.37C163.073 431.64 162.978 431.005 162.788 430.465C162.598 429.915 162.333 429.495 161.993 429.205C161.663 428.905 161.278 428.755 160.838 428.755ZM180.546 426.595H181.791V440.185H180.546V426.595ZM171.561 435.76H172.656C173.556 435.76 174.366 435.75 175.086 435.73C175.806 435.71 176.486 435.665 177.126 435.595C177.776 435.525 178.436 435.43 179.106 435.31L179.226 436.36C178.546 436.49 177.876 436.59 177.216 436.66C176.556 436.72 175.861 436.765 175.131 436.795C174.401 436.815 173.576 436.825 172.656 436.825H171.561V435.76ZM171.561 427.885H177.966V428.92H172.806V436.15H171.561V427.885Z" fill="#999999"/>
<path d="M317 475H58C53.5817 475 50 478.582 50 483V517C50 521.418 53.5817 525 58 525H317C321.418 525 325 521.418 325 517V483C325 478.582 321.418 475 317 475Z" fill="#F8F8F8" stroke="#E0E0E0"/>
<path d="M75.605 491.595H76.85V505.185H75.605V491.595ZM66.515 492.75H67.76V496.32H71.675V492.75H72.905V501.915H66.515V492.75ZM67.76 497.31V500.88H71.675V497.31H67.76ZM80.2538 492.345H86.5838V497.895H80.2538V492.345ZM85.3688 493.35H81.4688V496.905H85.3688V493.35ZM89.4188 491.595H90.6638V498.57H89.4188V491.595ZM81.8888 499.26H90.6638V502.53H83.1338V504.435H81.9188V501.615H89.4338V500.25H81.8888V499.26ZM81.9188 504.015H91.1138V505.02H81.9188V504.015ZM99.7527 495.42H103.638V496.44H99.7527V495.42ZM103.263 491.61H104.508V501.645H103.263V491.61ZM95.7927 503.85H104.823V504.87H95.7927V503.85ZM95.7927 500.67H97.0377V504.36H95.7927V500.67ZM94.0077 492.51H95.2527V494.895H98.9127V492.51H100.143V499.335H94.0077V492.51ZM95.2527 495.87V498.33H98.9127V495.87H95.2527ZM107.746 493.59H118.771V494.61H107.746V493.59ZM107.146 502.56H119.446V503.58H107.146V502.56ZM112.651 500.4H113.881V502.95H112.651V500.4ZM113.266 495.51C114.176 495.51 114.961 495.615 115.621 495.825C116.291 496.025 116.806 496.315 117.166 496.695C117.526 497.075 117.706 497.54 117.706 498.09C117.706 498.63 117.526 499.095 117.166 499.485C116.806 499.875 116.291 500.175 115.621 500.385C114.961 500.585 114.176 500.685 113.266 500.685C112.356 500.685 111.566 500.585 110.896 500.385C110.236 500.175 109.726 499.875 109.366 499.485C109.006 499.095 108.826 498.63 108.826 498.09C108.826 497.54 109.006 497.075 109.366 496.695C109.726 496.315 110.236 496.025 110.896 495.825C111.566 495.615 112.356 495.51 113.266 495.51ZM113.266 496.5C112.606 496.5 112.036 496.565 111.556 496.695C111.086 496.815 110.721 496.995 110.461 497.235C110.211 497.465 110.086 497.75 110.086 498.09C110.086 498.42 110.211 498.705 110.461 498.945C110.721 499.185 111.086 499.37 111.556 499.5C112.036 499.62 112.606 499.68 113.266 499.68C113.926 499.68 114.491 499.62 114.961 499.5C115.431 499.37 115.796 499.185 116.056 498.945C116.316 498.705 116.446 498.42 116.446 498.09C116.446 497.75 116.316 497.465 116.056 497.235C115.796 496.995 115.431 496.815 114.961 496.695C114.491 496.565 113.926 496.5 113.266 496.5ZM112.651 491.82H113.881V494.205H112.651V491.82Z" fill="#999999"/>
<path d="M305 510C310.523 510 315 505.523 315 500C315 494.477 310.523 490 305 490C299.477 490 295 494.477 295 500C295 505.523 299.477 510 305 510Z" fill="#CCCCCC"/>
<path d="M299 503.84H311V491.84H299V503.84Z" fill="white"/>
<path d="M64 540H54C51.7909 540 50 541.791 50 544V554C50 556.209 51.7909 558 54 558H64C66.2091 558 68 556.209 68 554V544C68 541.791 66.2091 540 64 540Z" fill="#F0F0F0" stroke="#CCCCCC"/>
<path d="M75.65 551.661H86.31V552.558H75.65V551.661ZM80.421 549.152H81.487V552.038H80.421V549.152ZM76.95 543.12H84.984V546.682H78.042V549.035H76.976V545.824H83.918V544.004H76.95V543.12ZM76.976 548.58H85.257V549.464H76.976V548.58ZM88.766 543.497H96.332V544.381H88.766V543.497ZM87.609 551.401H98.23V552.298H87.609V551.401ZM95.747 543.497H96.813V544.68C96.813 545.174 96.8043 545.703 96.787 546.266C96.7783 546.821 96.7437 547.436 96.683 548.112C96.6223 548.788 96.5183 549.551 96.371 550.4L95.279 550.283C95.435 549.486 95.5433 548.753 95.604 548.086C95.6733 547.419 95.7123 546.803 95.721 546.24C95.7383 545.677 95.747 545.157 95.747 544.68V543.497ZM108.122 542.262H109.201V550.842H108.122V542.262ZM101.648 552.87H109.565V553.754H101.648V552.87ZM101.648 549.971H102.727V553.169H101.648V549.971ZM102.896 543.081C103.485 543.081 104.01 543.202 104.469 543.445C104.928 543.688 105.292 544.03 105.561 544.472C105.83 544.905 105.964 545.404 105.964 545.967C105.964 546.53 105.83 547.033 105.561 547.475C105.292 547.908 104.928 548.251 104.469 548.502C104.01 548.745 103.485 548.866 102.896 548.866C102.315 548.866 101.791 548.745 101.323 548.502C100.864 548.251 100.5 547.908 100.231 547.475C99.9623 547.033 99.828 546.53 99.828 545.967C99.828 545.404 99.9623 544.905 100.231 544.472C100.5 544.03 100.864 543.688 101.323 543.445C101.791 543.202 102.315 543.081 102.896 543.081ZM102.896 544.017C102.515 544.017 102.172 544.099 101.869 544.264C101.566 544.429 101.323 544.658 101.141 544.953C100.968 545.248 100.881 545.586 100.881 545.967C100.881 546.357 100.968 546.699 101.141 546.994C101.323 547.28 101.566 547.505 101.869 547.67C102.172 547.835 102.515 547.917 102.896 547.917C103.277 547.917 103.62 547.835 103.923 547.67C104.235 547.505 104.478 547.28 104.651 546.994C104.824 546.699 104.911 546.357 104.911 545.967C104.911 545.586 104.824 545.248 104.651 544.953C104.478 544.658 104.235 544.429 103.923 544.264C103.62 544.099 103.277 544.017 102.896 544.017ZM118.005 542.86H118.889V544.056C118.889 544.81 118.755 545.512 118.486 546.162C118.226 546.812 117.853 547.38 117.368 547.865C116.883 548.342 116.315 548.706 115.665 548.957L115.08 548.099C115.678 547.882 116.194 547.57 116.627 547.163C117.069 546.756 117.407 546.288 117.641 545.759C117.884 545.222 118.005 544.654 118.005 544.056V542.86ZM118.2 542.86H119.071V544.147C119.071 544.537 119.14 544.923 119.279 545.304C119.418 545.677 119.613 546.023 119.864 546.344C120.124 546.665 120.427 546.951 120.774 547.202C121.121 547.445 121.506 547.64 121.931 547.787L121.359 548.632C120.735 548.398 120.185 548.06 119.708 547.618C119.231 547.167 118.859 546.647 118.59 546.058C118.33 545.46 118.2 544.823 118.2 544.147V542.86ZM123.192 542.249H124.271V549.386H123.192V542.249ZM123.972 545.291H126V546.201H123.972V545.291ZM120.527 549.698C121.324 549.698 122.009 549.785 122.581 549.958C123.162 550.123 123.608 550.365 123.92 550.686C124.232 551.007 124.388 551.392 124.388 551.843C124.388 552.294 124.232 552.679 123.92 553C123.608 553.321 123.162 553.563 122.581 553.728C122.009 553.901 121.324 553.988 120.527 553.988C119.73 553.988 119.041 553.901 118.46 553.728C117.879 553.563 117.433 553.321 117.121 553C116.809 552.679 116.653 552.294 116.653 551.843C116.653 551.392 116.809 551.007 117.121 550.686C117.433 550.365 117.879 550.123 118.46 549.958C119.041 549.785 119.73 549.698 120.527 549.698ZM120.527 550.556C119.946 550.556 119.444 550.608 119.019 550.712C118.603 550.816 118.282 550.963 118.057 551.154C117.832 551.345 117.719 551.574 117.719 551.843C117.719 552.12 117.832 552.354 118.057 552.545C118.282 552.736 118.603 552.883 119.019 552.987C119.444 553.082 119.946 553.13 120.527 553.13C121.108 553.13 121.606 553.082 122.022 552.987C122.438 552.883 122.759 552.736 122.984 552.545C123.209 552.354 123.322 552.12 123.322 551.843C123.322 551.574 123.209 551.345 122.984 551.154C122.759 550.963 122.438 550.816 122.022 550.712C121.606 550.608 121.108 550.556 120.527 550.556ZM127.572 550.205H128.326C128.95 550.205 129.5 550.201 129.977 550.192C130.454 550.175 130.9 550.144 131.316 550.101C131.741 550.049 132.174 549.984 132.616 549.906L132.72 550.803C132.269 550.881 131.827 550.946 131.394 550.998C130.961 551.041 130.497 551.072 130.003 551.089C129.518 551.106 128.959 551.115 128.326 551.115H127.572V550.205ZM127.572 543.601H132.2V544.485H128.599V550.543H127.572V543.601ZM128.287 546.708H132.018V547.566H128.287V546.708ZM136.061 542.249H137.101V554.014H136.061V542.249ZM134.189 546.968H136.451V547.852H134.189V546.968ZM133.474 542.496H134.501V553.416H133.474V542.496ZM145.411 549.529H146.516V554.014H145.411V549.529ZM149.454 549.529H150.546V554.014H149.454V549.529ZM142.668 548.944H153.328V549.828H142.668V548.944ZM147.972 542.717C148.796 542.717 149.515 542.825 150.13 543.042C150.746 543.25 151.227 543.545 151.573 543.926C151.92 544.307 152.093 544.762 152.093 545.291C152.093 545.802 151.92 546.253 151.573 546.643C151.227 547.024 150.746 547.319 150.13 547.527C149.515 547.735 148.796 547.839 147.972 547.839C147.166 547.839 146.451 547.735 145.827 547.527C145.212 547.319 144.731 547.024 144.384 546.643C144.038 546.253 143.864 545.802 143.864 545.291C143.864 544.762 144.038 544.307 144.384 543.926C144.731 543.545 145.212 543.25 145.827 543.042C146.451 542.825 147.166 542.717 147.972 542.717ZM147.972 543.588C147.383 543.588 146.859 543.657 146.399 543.796C145.949 543.935 145.598 544.134 145.346 544.394C145.095 544.645 144.969 544.944 144.969 545.291C144.969 545.629 145.095 545.928 145.346 546.188C145.598 546.439 145.949 546.634 146.399 546.773C146.859 546.903 147.383 546.968 147.972 546.968C148.579 546.968 149.108 546.903 149.558 546.773C150.009 546.634 150.36 546.439 150.611 546.188C150.863 545.928 150.988 545.629 150.988 545.291C150.988 544.944 150.863 544.645 150.611 544.394C150.36 544.134 150.009 543.935 149.558 543.796C149.108 543.657 148.579 543.588 147.972 543.588ZM157.747 543.939H158.631V545.837C158.631 546.461 158.545 547.076 158.371 547.683C158.198 548.281 157.955 548.849 157.643 549.386C157.34 549.915 156.985 550.383 156.577 550.79C156.17 551.197 155.732 551.518 155.264 551.752L154.64 550.894C155.065 550.686 155.464 550.404 155.836 550.049C156.218 549.694 156.551 549.286 156.837 548.827C157.123 548.368 157.344 547.882 157.5 547.371C157.665 546.86 157.747 546.348 157.747 545.837V543.939ZM157.968 543.939H158.839V545.837C158.839 546.331 158.917 546.825 159.073 547.319C159.238 547.804 159.463 548.264 159.749 548.697C160.044 549.122 160.378 549.499 160.75 549.828C161.132 550.157 161.539 550.417 161.972 550.608L161.374 551.466C160.898 551.241 160.451 550.937 160.035 550.556C159.619 550.175 159.255 549.737 158.943 549.243C158.64 548.74 158.402 548.203 158.228 547.631C158.055 547.05 157.968 546.452 157.968 545.837V543.939ZM155.017 543.458H161.582V544.355H155.017V543.458ZM163.181 542.249H164.26V554.014H163.181V542.249Z" fill="#666666"/>
<path d="M238.819 542.249H239.898V554.027H238.819V542.249ZM230.941 543.25H232.02V546.344H235.413V543.25H236.479V551.193H230.941V543.25ZM232.02 547.202V550.296H235.413V547.202H232.02ZM242.848 542.899H248.334V547.709H242.848V542.899ZM247.281 543.77H243.901V546.851H247.281V543.77ZM250.791 542.249H251.87V548.294H250.791V542.249ZM244.265 548.892H251.87V551.726H245.344V553.377H244.291V550.933H250.804V549.75H244.265V548.892ZM244.291 553.013H252.26V553.884H244.291V553.013ZM259.747 545.564H263.114V546.448H259.747V545.564ZM262.789 542.262H263.868V550.959H262.789V542.262ZM256.315 552.87H264.141V553.754H256.315V552.87ZM256.315 550.114H257.394V553.312H256.315V550.114ZM254.768 543.042H255.847V545.109H259.019V543.042H260.085V548.957H254.768V543.042ZM255.847 545.954V548.086H259.019V545.954H255.847ZM266.675 543.978H276.23V544.862H266.675V543.978ZM266.155 551.752H276.815V552.636H266.155V551.752ZM270.926 549.88H271.992V552.09H270.926V549.88ZM271.459 545.642C272.248 545.642 272.928 545.733 273.5 545.915C274.081 546.088 274.527 546.34 274.839 546.669C275.151 546.998 275.307 547.401 275.307 547.878C275.307 548.346 275.151 548.749 274.839 549.087C274.527 549.425 274.081 549.685 273.5 549.867C272.928 550.04 272.248 550.127 271.459 550.127C270.67 550.127 269.986 550.04 269.405 549.867C268.833 549.685 268.391 549.425 268.079 549.087C267.767 548.749 267.611 548.346 267.611 547.878C267.611 547.401 267.767 546.998 268.079 546.669C268.391 546.34 268.833 546.088 269.405 545.915C269.986 545.733 270.67 545.642 271.459 545.642ZM271.459 546.5C270.887 546.5 270.393 546.556 269.977 546.669C269.57 546.773 269.253 546.929 269.028 547.137C268.811 547.336 268.703 547.583 268.703 547.878C268.703 548.164 268.811 548.411 269.028 548.619C269.253 548.827 269.57 548.987 269.977 549.1C270.393 549.204 270.887 549.256 271.459 549.256C272.031 549.256 272.521 549.204 272.928 549.1C273.335 548.987 273.652 548.827 273.877 548.619C274.102 548.411 274.215 548.164 274.215 547.878C274.215 547.583 274.102 547.336 273.877 547.137C273.652 546.929 273.335 546.773 272.928 546.669C272.521 546.556 272.031 546.5 271.459 546.5ZM270.926 542.444H271.992V544.511H270.926V542.444ZM284.67 544.186H285.541V544.693C285.541 545.36 285.402 545.976 285.125 546.539C284.856 547.102 284.475 547.592 283.981 548.008C283.487 548.424 282.911 548.74 282.252 548.957L281.732 548.099C282.313 547.917 282.824 547.657 283.266 547.319C283.708 546.981 284.05 546.587 284.293 546.136C284.544 545.685 284.67 545.204 284.67 544.693V544.186ZM284.852 544.186H285.736V544.693C285.736 545.161 285.853 545.607 286.087 546.032C286.33 546.448 286.668 546.821 287.101 547.15C287.534 547.471 288.037 547.718 288.609 547.891L288.115 548.723C287.456 548.524 286.88 548.229 286.386 547.839C285.901 547.44 285.524 546.972 285.255 546.435C284.986 545.898 284.852 545.317 284.852 544.693V544.186ZM282.057 543.614H288.336V544.485H282.057V543.614ZM284.67 542.197H285.749V543.978H284.67V542.197ZM289.779 542.249H290.858V549.074H289.779V542.249ZM290.559 545.148H292.587V546.045H290.559V545.148ZM286.646 550.049H287.556V550.361C287.556 550.82 287.443 551.249 287.218 551.648C287.001 552.047 286.694 552.402 286.295 552.714C285.905 553.026 285.454 553.286 284.943 553.494C284.432 553.711 283.886 553.867 283.305 553.962L282.902 553.13C283.405 553.061 283.881 552.939 284.332 552.766C284.783 552.593 285.181 552.385 285.528 552.142C285.875 551.891 286.148 551.613 286.347 551.31C286.546 551.007 286.646 550.69 286.646 550.361V550.049ZM286.841 550.049H287.764V550.361C287.764 550.69 287.864 551.002 288.063 551.297C288.271 551.592 288.548 551.865 288.895 552.116C289.242 552.367 289.636 552.584 290.078 552.766C290.529 552.939 291.005 553.065 291.508 553.143L291.105 553.975C290.524 553.871 289.978 553.711 289.467 553.494C288.956 553.286 288.501 553.026 288.102 552.714C287.712 552.393 287.404 552.034 287.179 551.635C286.954 551.236 286.841 550.812 286.841 550.361V550.049ZM283.357 549.711H291.053V550.595H283.357V549.711ZM302.258 542.249H303.337V554.014H302.258V542.249ZM298.813 543.523H299.879C299.879 544.372 299.775 545.191 299.567 545.98C299.368 546.769 299.051 547.518 298.618 548.229C298.185 548.931 297.621 549.585 296.928 550.192C296.235 550.799 295.394 551.34 294.406 551.817L293.834 550.946C294.969 550.4 295.905 549.763 296.642 549.035C297.379 548.307 297.925 547.497 298.28 546.604C298.635 545.703 298.813 544.732 298.813 543.692V543.523ZM294.38 543.523H299.268V544.394H294.38V543.523Z" fill="#4CAF50"/>
<path d="M299 580H76C61.6406 580 50 591.641 50 606C50 620.359 61.6406 632 76 632H299C313.359 632 325 620.359 325 606C325 591.641 313.359 580 299 580Z" fill="#4CAF50"/>
<path d="M166.078 610.064H179.502V611.792H166.078V610.064ZM171.71 607.248H173.822V610.752H171.71V607.248ZM167.598 599.552H177.982V604.496H169.726V606.976H167.614V602.832H175.87V601.248H167.598V599.552ZM167.614 606.144H178.318V607.84H167.614V606.144ZM182.173 599.952H191.549V601.648H182.173V599.952ZM180.797 609.76H194.205V611.488H180.797V609.76ZM190.429 599.952H192.557V601.712C192.557 602.405 192.546 603.109 192.525 603.824C192.514 604.539 192.471 605.301 192.397 606.112C192.333 606.923 192.205 607.84 192.013 608.864L189.885 608.672C190.077 607.723 190.205 606.848 190.269 606.048C190.343 605.248 190.386 604.496 190.397 603.792C190.418 603.077 190.429 602.384 190.429 601.712V599.952ZM205.691 598.608H207.819V609.248H205.691V598.608ZM197.947 611.456H208.203V613.168H197.947V611.456ZM197.947 608.192H200.075V612.16H197.947V608.192ZM199.755 599.552C200.513 599.552 201.195 599.712 201.803 600.032C202.411 600.352 202.891 600.795 203.243 601.36C203.606 601.925 203.787 602.576 203.787 603.312C203.787 604.027 203.606 604.672 203.243 605.248C202.891 605.813 202.411 606.261 201.803 606.592C201.195 606.912 200.513 607.072 199.755 607.072C198.998 607.072 198.315 606.912 197.707 606.592C197.099 606.261 196.614 605.813 196.251 605.248C195.899 604.672 195.723 604.027 195.723 603.312C195.723 602.576 195.899 601.925 196.251 601.36C196.614 600.795 197.099 600.352 197.707 600.032C198.315 599.712 198.998 599.552 199.755 599.552ZM199.755 601.376C199.393 601.376 199.062 601.456 198.763 601.616C198.465 601.765 198.23 601.984 198.059 602.272C197.889 602.549 197.803 602.896 197.803 603.312C197.803 603.707 197.889 604.048 198.059 604.336C198.23 604.613 198.465 604.832 198.763 604.992C199.062 605.141 199.393 605.216 199.755 605.216C200.118 605.216 200.449 605.141 200.747 604.992C201.046 604.832 201.281 604.613 201.451 604.336C201.622 604.048 201.707 603.707 201.707 603.312C201.707 602.896 201.622 602.549 201.451 602.272C201.281 601.984 201.046 601.765 200.747 601.616C200.449 601.456 200.118 601.376 199.755 601.376Z" fill="white"/>
<path d="M299 668H76C61.6406 668 50 679.641 50 694C50 708.359 61.6406 720 76 720H299C313.359 720 325 708.359 325 694C325 679.641 313.359 668 299 668Z" fill="#4C81AF"/>
<path d="M151.933 686.576H154.061V701.44H151.933V686.576ZM142.493 687.76H144.605V691.376H147.677V687.76H149.789V697.984H142.493V687.76ZM144.605 693.024V696.288H147.677V693.024H144.605ZM160.236 695.616H162.364V698.016H160.236V695.616ZM166.716 686.608H168.844V701.424H166.716V686.608ZM156.812 698.96L156.556 697.232C157.452 697.232 158.428 697.227 159.484 697.216C160.54 697.205 161.623 697.168 162.732 697.104C163.852 697.04 164.929 696.939 165.964 696.8L166.108 698.336C165.031 698.528 163.943 698.672 162.844 698.768C161.756 698.853 160.7 698.907 159.676 698.928C158.652 698.949 157.697 698.96 156.812 698.96ZM156.844 688.24H165.772V689.904H156.844V688.24ZM161.308 690.48C162.033 690.48 162.673 690.597 163.228 690.832C163.783 691.067 164.215 691.392 164.524 691.808C164.844 692.224 165.004 692.709 165.004 693.264C165.004 693.808 164.844 694.293 164.524 694.72C164.215 695.136 163.783 695.461 163.228 695.696C162.673 695.931 162.033 696.048 161.308 696.048C160.583 696.048 159.943 695.931 159.388 695.696C158.833 695.461 158.396 695.136 158.076 694.72C157.767 694.293 157.612 693.808 157.612 693.264C157.612 692.709 157.767 692.224 158.076 691.808C158.396 691.392 158.833 691.067 159.388 690.832C159.943 690.597 160.583 690.48 161.308 690.48ZM161.308 692.08C160.817 692.08 160.417 692.187 160.108 692.4C159.799 692.603 159.644 692.891 159.644 693.264C159.644 693.648 159.799 693.941 160.108 694.144C160.417 694.347 160.817 694.448 161.308 694.448C161.799 694.448 162.199 694.347 162.508 694.144C162.817 693.941 162.972 693.648 162.972 693.264C162.972 692.891 162.817 692.603 162.508 692.4C162.199 692.187 161.799 692.08 161.308 692.08ZM160.236 686.656H162.38V689.2H160.236V686.656ZM175.067 694.208H177.195V697.44H175.067V694.208ZM181.547 686.592H183.675V697.824H181.547V686.592ZM173.003 699.456H184.011V701.168H173.003V699.456ZM173.003 696.752H175.131V699.92H173.003V696.752ZM171.419 694.848L171.147 693.152C172.053 693.141 173.04 693.131 174.107 693.12C175.173 693.099 176.261 693.056 177.371 692.992C178.48 692.928 179.547 692.832 180.571 692.704L180.715 694.224C179.659 694.405 178.581 694.544 177.483 694.64C176.395 694.725 175.333 694.779 174.299 694.8C173.264 694.821 172.304 694.837 171.419 694.848ZM178.763 695.2H182.027V696.656H178.763V695.2ZM175.915 687.104C176.64 687.104 177.28 687.216 177.835 687.44C178.389 687.664 178.821 687.973 179.131 688.368C179.451 688.763 179.611 689.227 179.611 689.76C179.611 690.283 179.451 690.747 179.131 691.152C178.821 691.547 178.389 691.851 177.835 692.064C177.28 692.277 176.64 692.384 175.915 692.384C175.189 692.384 174.544 692.277 173.979 692.064C173.424 691.851 172.992 691.547 172.683 691.152C172.373 690.747 172.219 690.283 172.219 689.76C172.219 689.227 172.373 688.763 172.683 688.368C172.992 687.973 173.424 687.664 173.979 687.44C174.544 687.216 175.189 687.104 175.915 687.104ZM175.915 688.656C175.424 688.656 175.019 688.747 174.699 688.928C174.389 689.109 174.235 689.387 174.235 689.76C174.235 690.112 174.389 690.384 174.699 690.576C175.019 690.757 175.424 690.848 175.915 690.848C176.416 690.848 176.816 690.757 177.115 690.576C177.424 690.384 177.579 690.112 177.579 689.76C177.579 689.515 177.509 689.312 177.371 689.152C177.232 688.992 177.04 688.869 176.795 688.784C176.549 688.699 176.256 688.656 175.915 688.656ZM190.383 698.064H203.807V699.792H190.383V698.064ZM196.015 695.248H198.127V698.752H196.015V695.248ZM191.903 687.552H202.287V692.496H194.031V694.976H191.919V690.832H200.175V689.248H191.903V687.552ZM191.919 694.144H202.623V695.84H191.919V694.144ZM206.477 687.952H215.853V689.648H206.477V687.952ZM205.101 697.76H218.509V699.488H205.101V697.76ZM214.733 687.952H216.861V689.712C216.861 690.405 216.851 691.109 216.829 691.824C216.819 692.539 216.776 693.301 216.701 694.112C216.637 694.923 216.509 695.84 216.317 696.864L214.189 696.672C214.381 695.723 214.509 694.848 214.573 694.048C214.648 693.248 214.691 692.496 214.701 691.792C214.723 691.077 214.733 690.384 214.733 689.712V687.952ZM229.996 686.608H232.124V697.248H229.996V686.608ZM222.252 699.456H232.508V701.168H222.252V699.456ZM222.252 696.192H224.38V700.16H222.252V696.192ZM224.06 687.552C224.817 687.552 225.5 687.712 226.108 688.032C226.716 688.352 227.196 688.795 227.548 689.36C227.911 689.925 228.092 690.576 228.092 691.312C228.092 692.027 227.911 692.672 227.548 693.248C227.196 693.813 226.716 694.261 226.108 694.592C225.5 694.912 224.817 695.072 224.06 695.072C223.303 695.072 222.62 694.912 222.012 694.592C221.404 694.261 220.919 693.813 220.556 693.248C220.204 692.672 220.028 692.027 220.028 691.312C220.028 690.576 220.204 689.925 220.556 689.36C220.919 688.795 221.404 688.352 222.012 688.032C222.62 687.712 223.303 687.552 224.06 687.552ZM224.06 689.376C223.697 689.376 223.367 689.456 223.068 689.616C222.769 689.765 222.535 689.984 222.364 690.272C222.193 690.549 222.108 690.896 222.108 691.312C222.108 691.707 222.193 692.048 222.364 692.336C222.535 692.613 222.769 692.832 223.068 692.992C223.367 693.141 223.697 693.216 224.06 693.216C224.423 693.216 224.753 693.141 225.052 692.992C225.351 692.832 225.585 692.613 225.756 692.336C225.927 692.048 226.012 691.707 226.012 691.312C226.012 690.896 225.927 690.549 225.756 690.272C225.585 689.984 225.351 689.765 225.052 689.616C224.753 689.456 224.423 689.376 224.06 689.376Z" fill="white"/>
</g>
<defs>
<filter id="filter0_f_1_2" x="22" y="332" width="331" height="440" filterUnits="userSpaceOnUse" color-interpolation-filters="sRGB">
<feFlood flood-opacity="0" result="BackgroundImageFix"/>
<feBlend mode="normal" in="SourceGraphic" in2="BackgroundImageFix" result="shape"/>
<feGaussianBlur stdDeviation="4" result="effect1_foregroundBlur_1_2"/>
</filter>
<clipPath id="clip0_1_2">
<rect width="375" height="812" fill="white"/>
</clipPath>
</defs>
</svg>
