<svg width="375" height="812" viewBox="0 0 375 812" fill="none" xmlns="http://www.w3.org/2000/svg">
<g clip-path="url(#clip0_1_131)">
<path opacity="0.5" d="M375 0H0V812H375V0Z" fill="black"/>
<g filter="url(#filter0_d_1_131)">
<path d="M321.5 306H53.5C44.6634 306 37.5 313.163 37.5 322V490C37.5 498.837 44.6634 506 53.5 506H321.5C330.337 506 337.5 498.837 337.5 490V322C337.5 313.163 330.337 306 321.5 306Z" fill="white"/>
</g>
<path d="M313.5 327L321.5 335" stroke="#999999" stroke-width="2" stroke-linecap="round"/>
<path d="M321.5 327L313.5 335" stroke="#999999" stroke-width="2" stroke-linecap="round"/>
<path d="M104.647 390.068H107.041V392.768H104.647V390.068ZM111.937 379.934H114.331V396.602H111.937V379.934ZM100.795 393.83L100.507 391.886C101.515 391.886 102.613 391.88 103.801 391.868C104.989 391.856 106.207 391.814 107.455 391.742C108.715 391.67 109.927 391.556 111.091 391.4L111.253 393.128C110.041 393.344 108.817 393.506 107.581 393.614C106.357 393.71 105.169 393.77 104.017 393.794C102.865 393.818 101.791 393.83 100.795 393.83ZM100.831 381.77H110.875V383.642H100.831V381.77ZM105.853 384.29C106.669 384.29 107.389 384.422 108.013 384.686C108.637 384.95 109.123 385.316 109.471 385.784C109.831 386.252 110.011 386.798 110.011 387.422C110.011 388.034 109.831 388.58 109.471 389.06C109.123 389.528 108.637 389.894 108.013 390.158C107.389 390.422 106.669 390.554 105.853 390.554C105.037 390.554 104.317 390.422 103.693 390.158C103.069 389.894 102.577 389.528 102.217 389.06C101.869 388.58 101.695 388.034 101.695 387.422C101.695 386.798 101.869 386.252 102.217 385.784C102.577 385.316 103.069 384.95 103.693 384.686C104.317 384.422 105.037 384.29 105.853 384.29ZM105.853 386.09C105.301 386.09 104.851 386.21 104.503 386.45C104.155 386.678 103.981 387.002 103.981 387.422C103.981 387.854 104.155 388.184 104.503 388.412C104.851 388.64 105.301 388.754 105.853 388.754C106.405 388.754 106.855 388.64 107.203 388.412C107.551 388.184 107.725 387.854 107.725 387.422C107.725 387.002 107.551 386.678 107.203 386.45C106.855 386.21 106.405 386.09 105.853 386.09ZM104.647 379.988H107.059V382.85H104.647V379.988ZM121.332 388.484H123.726V392.12H121.332V388.484ZM128.622 379.916H131.016V392.552H128.622V379.916ZM119.01 394.388H131.394V396.314H119.01V394.388ZM119.01 391.346H121.404V394.91H119.01V391.346ZM117.228 389.204L116.922 387.296C117.942 387.284 119.052 387.272 120.252 387.26C121.452 387.236 122.676 387.188 123.924 387.116C125.172 387.044 126.372 386.936 127.524 386.792L127.686 388.502C126.498 388.706 125.286 388.862 124.05 388.97C122.826 389.066 121.632 389.126 120.468 389.15C119.304 389.174 118.224 389.192 117.228 389.204ZM125.49 389.6H129.162V391.238H125.49V389.6ZM122.286 380.492C123.102 380.492 123.822 380.618 124.446 380.87C125.07 381.122 125.556 381.47 125.904 381.914C126.264 382.358 126.444 382.88 126.444 383.48C126.444 384.068 126.264 384.59 125.904 385.046C125.556 385.49 125.07 385.832 124.446 386.072C123.822 386.312 123.102 386.432 122.286 386.432C121.47 386.432 120.744 386.312 120.108 386.072C119.484 385.832 118.998 385.49 118.65 385.046C118.302 384.59 118.128 384.068 118.128 383.48C118.128 382.88 118.302 382.358 118.65 381.914C118.998 381.47 119.484 381.122 120.108 380.87C120.744 380.618 121.47 380.492 122.286 380.492ZM122.286 382.238C121.734 382.238 121.278 382.34 120.918 382.544C120.57 382.748 120.396 383.06 120.396 383.48C120.396 383.876 120.57 384.182 120.918 384.398C121.278 384.602 121.734 384.704 122.286 384.704C122.85 384.704 123.3 384.602 123.636 384.398C123.984 384.182 124.158 383.876 124.158 383.48C124.158 383.204 124.08 382.976 123.924 382.796C123.768 382.616 123.552 382.478 123.276 382.382C123 382.286 122.67 382.238 122.286 382.238ZM134.02 381.284H141.976V389.348H134.02V381.284ZM139.618 383.192H136.378V387.458H139.618V383.192ZM144.262 379.934H146.656V392.084H144.262V379.934ZM145.99 384.74H148.87V386.702H145.99V384.74ZM135.91 394.388H147.25V396.314H135.91V394.388ZM135.91 390.896H138.322V395.36H135.91V390.896ZM164.139 383.66H167.289V385.586H164.139V383.66ZM166.659 379.934H169.053V389.042H166.659V379.934ZM158.001 389.708H160.377V391.238H166.695V389.708H169.053V396.422H158.001V389.708ZM160.377 393.074V394.496H166.695V393.074H160.377ZM158.973 381.212H160.917V382.274C160.917 383.318 160.749 384.314 160.413 385.262C160.077 386.21 159.561 387.038 158.865 387.746C158.181 388.454 157.299 388.988 156.219 389.348L155.031 387.458C155.715 387.218 156.303 386.918 156.795 386.558C157.299 386.198 157.707 385.784 158.019 385.316C158.343 384.848 158.583 384.356 158.739 383.84C158.895 383.324 158.973 382.802 158.973 382.274V381.212ZM159.477 381.212H161.385V382.256C161.385 382.904 161.517 383.552 161.781 384.2C162.045 384.836 162.453 385.412 163.005 385.928C163.569 386.444 164.289 386.852 165.165 387.152L163.995 389.024C162.963 388.676 162.111 388.16 161.439 387.476C160.779 386.792 160.287 386 159.963 385.1C159.639 384.2 159.477 383.252 159.477 382.256V381.212ZM155.679 380.69H164.643V382.58H155.679V380.69ZM173.533 380.834H184.063V382.742H173.533V380.834ZM171.679 387.296H186.781V389.204H171.679V387.296ZM182.641 380.834H185.017V382.274C185.017 383.066 184.993 383.924 184.945 384.848C184.909 385.772 184.759 386.834 184.495 388.034L182.137 387.818C182.389 386.642 182.533 385.622 182.569 384.758C182.617 383.882 182.641 383.054 182.641 382.274V380.834ZM173.569 394.388H185.485V396.296H173.569V394.388ZM173.569 390.626H175.945V394.568H173.569V390.626ZM203.886 379.898H206.298V396.566H203.886V379.898ZM205.686 386.288H208.62V388.25H205.686V386.288ZM199.512 381.626H201.87C201.87 383.294 201.63 384.872 201.15 386.36C200.682 387.848 199.902 389.216 198.81 390.464C197.73 391.7 196.266 392.78 194.418 393.704L193.068 391.886C194.532 391.13 195.738 390.278 196.686 389.33C197.646 388.382 198.354 387.308 198.81 386.108C199.278 384.896 199.512 383.546 199.512 382.058V381.626ZM193.986 381.626H200.754V383.552H193.986V381.626ZM211.696 384.074H223.216V385.964H211.696V384.074ZM211.696 380.204H214.09V384.938H211.696V380.204ZM209.824 387.386H224.89V389.294H209.824V387.386ZM217.294 390.374C219.094 390.374 220.51 390.644 221.542 391.184C222.574 391.712 223.09 392.474 223.09 393.47C223.09 394.442 222.574 395.198 221.542 395.738C220.51 396.29 219.094 396.566 217.294 396.566C215.494 396.566 214.078 396.29 213.046 395.738C212.026 395.198 211.516 394.442 211.516 393.47C211.516 392.474 212.026 391.712 213.046 391.184C214.078 390.644 215.494 390.374 217.294 390.374ZM217.294 392.192C216.55 392.192 215.926 392.24 215.422 392.336C214.93 392.42 214.558 392.558 214.306 392.75C214.054 392.93 213.928 393.164 213.928 393.452C213.928 393.74 214.054 393.98 214.306 394.172C214.558 394.352 214.93 394.49 215.422 394.586C215.926 394.682 216.55 394.73 217.294 394.73C218.038 394.73 218.656 394.682 219.148 394.586C219.652 394.49 220.03 394.352 220.282 394.172C220.534 393.98 220.66 393.74 220.66 393.452C220.66 393.164 220.534 392.93 220.282 392.75C220.03 392.558 219.652 392.42 219.148 392.336C218.656 392.24 218.038 392.192 217.294 392.192ZM237.075 379.934H239.469V389.69H237.075V379.934ZM238.533 383.93H241.683V385.892H238.533V383.93ZM228.633 390.338H231.009V391.58H237.111V390.338H239.469V396.422H228.633V390.338ZM231.009 393.38V394.55H237.111V393.38H231.009ZM226.365 381.374H236.157V383.264H226.365V381.374ZM231.261 383.696C232.077 383.696 232.791 383.822 233.403 384.074C234.015 384.314 234.495 384.656 234.843 385.1C235.191 385.544 235.365 386.06 235.365 386.648C235.365 387.236 235.191 387.752 234.843 388.196C234.495 388.64 234.015 388.988 233.403 389.24C232.791 389.48 232.077 389.6 231.261 389.6C230.457 389.6 229.743 389.48 229.119 389.24C228.507 388.988 228.027 388.64 227.679 388.196C227.331 387.752 227.157 387.236 227.157 386.648C227.157 386.06 227.331 385.544 227.679 385.1C228.027 384.656 228.507 384.314 229.119 384.074C229.743 383.822 230.457 383.696 231.261 383.696ZM231.261 385.442C230.733 385.442 230.301 385.55 229.965 385.766C229.629 385.97 229.461 386.264 229.461 386.648C229.461 387.044 229.629 387.35 229.965 387.566C230.301 387.77 230.733 387.872 231.261 387.872C231.801 387.872 232.233 387.77 232.557 387.566C232.893 387.35 233.061 387.044 233.061 386.648C233.061 386.264 232.893 385.97 232.557 385.766C232.233 385.55 231.801 385.442 231.261 385.442ZM230.073 379.79H232.449V382.418H230.073V379.79ZM254.462 379.916H256.838V396.584H254.462V379.916ZM243.788 381.5H246.182V391.868H243.788V381.5ZM243.788 390.446H245.264C246.488 390.446 247.766 390.398 249.098 390.302C250.43 390.194 251.786 390.002 253.166 389.726L253.418 391.724C252.002 392.024 250.604 392.228 249.224 392.336C247.856 392.432 246.536 392.48 245.264 392.48H243.788V390.446ZM270.12 379.898H272.532V396.62H270.12V379.898ZM272.01 386.072H274.944V388.052H272.01V386.072ZM260.112 390.644H261.516C262.464 390.644 263.352 390.632 264.18 390.608C265.008 390.572 265.812 390.518 266.592 390.446C267.372 390.362 268.17 390.248 268.986 390.104L269.22 392.084C268.38 392.228 267.552 392.342 266.736 392.426C265.932 392.51 265.104 392.564 264.252 392.588C263.4 392.612 262.488 392.624 261.516 392.624H260.112V390.644ZM260.112 381.446H267.888V383.372H262.506V391.58H260.112V381.446Z" fill="#1A1A1A"/>
<path d="M124.737 415.661H135.397V416.558H124.737V415.661ZM129.508 413.152H130.574V416.038H129.508V413.152ZM126.037 407.12H134.071V410.682H127.129V413.035H126.063V409.824H133.005V408.004H126.037V407.12ZM126.063 412.58H134.344V413.464H126.063V412.58ZM137.853 407.497H145.419V408.381H137.853V407.497ZM136.696 415.401H147.317V416.298H136.696V415.401ZM144.834 407.497H145.9V408.68C145.9 409.174 145.891 409.703 145.874 410.266C145.865 410.821 145.831 411.436 145.77 412.112C145.709 412.788 145.605 413.551 145.458 414.4L144.366 414.283C144.522 413.486 144.63 412.753 144.691 412.086C144.76 411.419 144.799 410.803 144.808 410.24C144.825 409.677 144.834 409.157 144.834 408.68V407.497ZM157.209 406.262H158.288V414.842H157.209V406.262ZM150.735 416.87H158.652V417.754H150.735V416.87ZM150.735 413.971H151.814V417.169H150.735V413.971ZM151.983 407.081C152.572 407.081 153.097 407.202 153.556 407.445C154.015 407.688 154.379 408.03 154.648 408.472C154.917 408.905 155.051 409.404 155.051 409.967C155.051 410.53 154.917 411.033 154.648 411.475C154.379 411.908 154.015 412.251 153.556 412.502C153.097 412.745 152.572 412.866 151.983 412.866C151.402 412.866 150.878 412.745 150.41 412.502C149.951 412.251 149.587 411.908 149.318 411.475C149.049 411.033 148.915 410.53 148.915 409.967C148.915 409.404 149.049 408.905 149.318 408.472C149.587 408.03 149.951 407.688 150.41 407.445C150.878 407.202 151.402 407.081 151.983 407.081ZM151.983 408.017C151.602 408.017 151.259 408.099 150.956 408.264C150.653 408.429 150.41 408.658 150.228 408.953C150.055 409.248 149.968 409.586 149.968 409.967C149.968 410.357 150.055 410.699 150.228 410.994C150.41 411.28 150.653 411.505 150.956 411.67C151.259 411.835 151.602 411.917 151.983 411.917C152.364 411.917 152.707 411.835 153.01 411.67C153.322 411.505 153.565 411.28 153.738 410.994C153.911 410.699 153.998 410.357 153.998 409.967C153.998 409.586 153.911 409.248 153.738 408.953C153.565 408.658 153.322 408.429 153.01 408.264C152.707 408.099 152.364 408.017 151.983 408.017ZM164.791 407.588H174.242V408.472H164.791V407.588ZM164.232 413.88H174.892V414.764H164.232V413.88ZM169.003 414.595H170.069V418.027H169.003V414.595ZM169.536 409.148C170.732 409.148 171.668 409.317 172.344 409.655C173.02 409.993 173.358 410.478 173.358 411.111C173.358 411.726 173.02 412.207 172.344 412.554C171.668 412.892 170.732 413.061 169.536 413.061C168.34 413.061 167.404 412.892 166.728 412.554C166.052 412.207 165.714 411.726 165.714 411.111C165.714 410.478 166.052 409.993 166.728 409.655C167.404 409.317 168.34 409.148 169.536 409.148ZM169.536 409.967C168.678 409.967 168.011 410.067 167.534 410.266C167.066 410.457 166.832 410.738 166.832 411.111C166.832 411.466 167.066 411.744 167.534 411.943C168.011 412.142 168.678 412.242 169.536 412.242C170.394 412.242 171.057 412.142 171.525 411.943C172.002 411.744 172.24 411.466 172.24 411.111C172.24 410.738 172.002 410.457 171.525 410.266C171.057 410.067 170.394 409.967 169.536 409.967ZM169.003 406.184H170.069V408.173H169.003V406.184ZM188.35 406.249H189.429V418.027H188.35V406.249ZM183.228 407.159C183.809 407.159 184.32 407.328 184.762 407.666C185.213 407.995 185.564 408.468 185.815 409.083C186.075 409.698 186.205 410.422 186.205 411.254C186.205 412.086 186.075 412.81 185.815 413.425C185.564 414.04 185.213 414.517 184.762 414.855C184.32 415.193 183.809 415.362 183.228 415.362C182.648 415.362 182.132 415.193 181.681 414.855C181.231 414.517 180.875 414.04 180.615 413.425C180.364 412.81 180.238 412.086 180.238 411.254C180.238 410.422 180.364 409.698 180.615 409.083C180.875 408.468 181.231 407.995 181.681 407.666C182.132 407.328 182.648 407.159 183.228 407.159ZM183.228 408.121C182.838 408.121 182.496 408.251 182.201 408.511C181.915 408.762 181.69 409.126 181.525 409.603C181.361 410.071 181.278 410.621 181.278 411.254C181.278 411.887 181.361 412.441 181.525 412.918C181.69 413.386 181.915 413.75 182.201 414.01C182.496 414.27 182.838 414.4 183.228 414.4C183.61 414.4 183.943 414.27 184.229 414.01C184.524 413.75 184.754 413.386 184.918 412.918C185.083 412.441 185.165 411.887 185.165 411.254C185.165 410.621 185.083 410.071 184.918 409.603C184.754 409.126 184.524 408.762 184.229 408.511C183.943 408.251 183.61 408.121 183.228 408.121ZM194.381 410.24H195.46V412.45H194.381V410.24ZM198.697 410.24H199.763V412.45H198.697V410.24ZM191.768 412.06H202.389V412.931H191.768V412.06ZM197.072 413.828C198.329 413.828 199.312 414.006 200.023 414.361C200.734 414.716 201.089 415.228 201.089 415.895C201.089 416.571 200.734 417.087 200.023 417.442C199.312 417.806 198.329 417.988 197.072 417.988C195.815 417.988 194.827 417.806 194.108 417.442C193.397 417.087 193.042 416.571 193.042 415.895C193.042 415.228 193.397 414.716 194.108 414.361C194.827 414.006 195.815 413.828 197.072 413.828ZM197.072 414.66C196.457 414.66 195.928 414.708 195.486 414.803C195.053 414.898 194.719 415.041 194.485 415.232C194.251 415.414 194.134 415.635 194.134 415.895C194.134 416.172 194.251 416.406 194.485 416.597C194.719 416.779 195.053 416.918 195.486 417.013C195.928 417.108 196.457 417.156 197.072 417.156C197.687 417.156 198.212 417.108 198.645 417.013C199.087 416.918 199.425 416.779 199.659 416.597C199.893 416.406 200.01 416.172 200.01 415.895C200.01 415.635 199.893 415.414 199.659 415.232C199.425 415.041 199.087 414.898 198.645 414.803C198.212 414.708 197.687 414.66 197.072 414.66ZM197.072 406.47C197.921 406.47 198.654 406.557 199.269 406.73C199.893 406.903 200.37 407.155 200.699 407.484C201.037 407.805 201.206 408.195 201.206 408.654C201.206 409.105 201.037 409.495 200.699 409.824C200.37 410.153 199.893 410.405 199.269 410.578C198.654 410.743 197.921 410.825 197.072 410.825C196.223 410.825 195.486 410.743 194.862 410.578C194.247 410.405 193.77 410.153 193.432 409.824C193.103 409.495 192.938 409.105 192.938 408.654C192.938 408.195 193.103 407.805 193.432 407.484C193.77 407.155 194.247 406.903 194.862 406.73C195.486 406.557 196.223 406.47 197.072 406.47ZM197.072 407.315C196.457 407.315 195.919 407.367 195.46 407.471C195.009 407.575 194.658 407.727 194.407 407.926C194.164 408.125 194.043 408.368 194.043 408.654C194.043 408.931 194.164 409.174 194.407 409.382C194.658 409.581 195.009 409.733 195.46 409.837C195.919 409.941 196.457 409.993 197.072 409.993C197.705 409.993 198.246 409.941 198.697 409.837C199.148 409.733 199.494 409.581 199.737 409.382C199.98 409.174 200.101 408.931 200.101 408.654C200.101 408.368 199.98 408.125 199.737 407.926C199.494 407.727 199.148 407.575 198.697 407.471C198.246 407.367 197.705 407.315 197.072 407.315ZM203.701 408.264H209.538V409.148H203.701V408.264ZM206.626 409.928C207.12 409.928 207.553 410.041 207.926 410.266C208.307 410.491 208.606 410.808 208.823 411.215C209.04 411.614 209.148 412.077 209.148 412.606C209.148 413.135 209.04 413.603 208.823 414.01C208.606 414.409 208.307 414.725 207.926 414.959C207.553 415.184 207.12 415.297 206.626 415.297C206.141 415.297 205.707 415.184 205.326 414.959C204.945 414.725 204.646 414.409 204.429 414.01C204.212 413.603 204.104 413.135 204.104 412.606C204.104 412.077 204.212 411.614 204.429 411.215C204.646 410.816 204.945 410.504 205.326 410.279C205.707 410.045 206.141 409.928 206.626 409.928ZM206.626 410.838C206.331 410.838 206.063 410.916 205.82 411.072C205.586 411.219 205.4 411.427 205.261 411.696C205.131 411.956 205.066 412.259 205.066 412.606C205.066 412.953 205.131 413.26 205.261 413.529C205.4 413.798 205.586 414.006 205.82 414.153C206.063 414.3 206.331 414.374 206.626 414.374C206.929 414.374 207.198 414.3 207.432 414.153C207.666 414.006 207.848 413.798 207.978 413.529C208.117 413.26 208.186 412.953 208.186 412.606C208.186 412.259 208.117 411.956 207.978 411.696C207.848 411.427 207.666 411.219 207.432 411.072C207.198 410.916 206.929 410.838 206.626 410.838ZM212.645 406.249H213.672V418.014H212.645V406.249ZM210.76 411.202H212.983V412.086H210.76V411.202ZM210.123 406.522H211.137V417.442H210.123V406.522ZM206.093 406.6H207.159V408.797H206.093V406.6ZM220.392 407.419H221.328V407.913C221.328 408.329 221.246 408.723 221.081 409.096C220.916 409.469 220.687 409.815 220.392 410.136C220.097 410.448 219.755 410.725 219.365 410.968C218.975 411.211 218.555 411.419 218.104 411.592C217.662 411.757 217.203 411.878 216.726 411.956L216.31 411.098C216.726 411.046 217.129 410.951 217.519 410.812C217.918 410.665 218.29 410.491 218.637 410.292C218.984 410.093 219.287 409.867 219.547 409.616C219.816 409.365 220.024 409.096 220.171 408.81C220.318 408.515 220.392 408.216 220.392 407.913V407.419ZM220.665 407.419H221.601V407.913C221.601 408.216 221.675 408.515 221.822 408.81C221.969 409.096 222.173 409.365 222.433 409.616C222.702 409.867 223.009 410.093 223.356 410.292C223.703 410.491 224.071 410.665 224.461 410.812C224.86 410.951 225.267 411.046 225.683 411.098L225.28 411.956C224.803 411.878 224.34 411.757 223.889 411.592C223.438 411.419 223.018 411.211 222.628 410.968C222.238 410.725 221.896 410.448 221.601 410.136C221.306 409.815 221.077 409.469 220.912 409.096C220.747 408.723 220.665 408.329 220.665 407.913V407.419ZM220.444 413.529H221.51V418.001H220.444V413.529ZM215.686 412.944H226.307V413.828H215.686V412.944ZM216.687 406.977H225.293V407.848H216.687V406.977ZM232.273 410.461H234.535V411.358H232.273V410.461ZM230.089 407.354H230.934V409.603C230.934 410.21 230.869 410.808 230.739 411.397C230.618 411.986 230.436 412.541 230.193 413.061C229.959 413.581 229.673 414.049 229.335 414.465C228.997 414.881 228.616 415.219 228.191 415.479L227.515 414.673C227.914 414.43 228.273 414.127 228.594 413.763C228.915 413.399 229.183 412.992 229.4 412.541C229.625 412.082 229.794 411.605 229.907 411.111C230.028 410.608 230.089 410.106 230.089 409.603V407.354ZM230.297 407.354H231.129V409.564C231.129 410.032 231.181 410.504 231.285 410.981C231.398 411.449 231.554 411.9 231.753 412.333C231.961 412.758 232.217 413.148 232.52 413.503C232.823 413.858 233.166 414.153 233.547 414.387L232.936 415.219C232.511 414.959 232.134 414.63 231.805 414.231C231.476 413.824 231.198 413.369 230.973 412.866C230.748 412.355 230.579 411.817 230.466 411.254C230.353 410.691 230.297 410.127 230.297 409.564V407.354ZM236.602 406.249H237.642V418.014H236.602V406.249ZM234.21 406.496H235.224V417.416H234.21V406.496ZM242.217 412.307H243.283V415.817H242.217V412.307ZM246.559 412.307H247.638V415.817H246.559V412.307ZM239.604 415.609H250.264V416.506H239.604V415.609ZM244.908 406.99C245.74 406.99 246.477 407.116 247.118 407.367C247.759 407.618 248.262 407.969 248.626 408.42C248.999 408.871 249.185 409.404 249.185 410.019C249.185 410.626 248.999 411.159 248.626 411.618C248.262 412.069 247.759 412.42 247.118 412.671C246.477 412.914 245.74 413.035 244.908 413.035C244.085 413.035 243.348 412.914 242.698 412.671C242.057 412.42 241.554 412.069 241.19 411.618C240.826 411.159 240.644 410.626 240.644 410.019C240.644 409.404 240.826 408.871 241.19 408.42C241.554 407.969 242.057 407.618 242.698 407.367C243.348 407.116 244.085 406.99 244.908 406.99ZM244.908 407.848C244.284 407.848 243.729 407.939 243.244 408.121C242.759 408.303 242.377 408.559 242.1 408.888C241.823 409.209 241.684 409.586 241.684 410.019C241.684 410.452 241.823 410.834 242.1 411.163C242.377 411.484 242.759 411.735 243.244 411.917C243.729 412.099 244.284 412.19 244.908 412.19C245.541 412.19 246.1 412.099 246.585 411.917C247.07 411.735 247.452 411.484 247.729 411.163C248.006 410.834 248.145 410.452 248.145 410.019C248.145 409.586 248.006 409.209 247.729 408.888C247.452 408.559 247.07 408.303 246.585 408.121C246.1 407.939 245.541 407.848 244.908 407.848Z" fill="#666666"/>
<path d="M169.5 441H65.5C61.0817 441 57.5 444.582 57.5 449V478C57.5 482.418 61.0817 486 65.5 486H169.5C173.918 486 177.5 482.418 177.5 478V449C177.5 444.582 173.918 441 169.5 441Z" fill="#F5F5F5" stroke="#E0E0E0"/>
<path d="M107.901 458.07H109.506V458.25C109.506 458.93 109.361 459.56 109.071 460.14C108.791 460.72 108.366 461.215 107.796 461.625C107.226 462.035 106.496 462.335 105.606 462.525L104.796 460.98C105.516 460.84 106.101 460.635 106.551 460.365C107.011 460.085 107.351 459.76 107.571 459.39C107.791 459.02 107.901 458.64 107.901 458.25V458.07ZM108.291 458.07H109.896V458.25C109.896 458.62 110.001 458.975 110.211 459.315C110.431 459.645 110.766 459.94 111.216 460.2C111.666 460.45 112.236 460.645 112.926 460.785L112.146 462.315C111.276 462.145 110.556 461.865 109.986 461.475C109.416 461.085 108.991 460.615 108.711 460.065C108.431 459.505 108.291 458.9 108.291 458.25V458.07ZM105.171 456.81H112.611V458.34H105.171V456.81ZM107.886 455.46H109.896V457.92H107.886V455.46ZM107.871 463.32H109.881V468.915H107.871V463.32ZM113.946 455.43H115.941V469.32H113.946V455.43ZM104.586 464.73L104.361 463.095C105.201 463.095 106.116 463.09 107.106 463.08C108.096 463.06 109.111 463.025 110.151 462.975C111.191 462.915 112.196 462.825 113.166 462.705L113.286 464.145C112.286 464.315 111.276 464.445 110.256 464.535C109.236 464.615 108.241 464.67 107.271 464.7C106.311 464.72 105.416 464.73 104.586 464.73ZM118.115 466.08H130.7V467.7H118.115V466.08ZM123.335 462.99H125.33V466.515H123.335V462.99ZM123.275 456.21H125.015V457.215C125.015 457.805 124.93 458.375 124.76 458.925C124.6 459.475 124.355 459.995 124.025 460.485C123.705 460.975 123.31 461.42 122.84 461.82C122.37 462.21 121.83 462.545 121.22 462.825C120.62 463.105 119.955 463.31 119.225 463.44L118.4 461.775C119.04 461.675 119.615 461.515 120.125 461.295C120.635 461.075 121.085 460.815 121.475 460.515C121.875 460.205 122.205 459.87 122.465 459.51C122.735 459.14 122.935 458.76 123.065 458.37C123.205 457.98 123.275 457.595 123.275 457.215V456.21ZM123.65 456.21H125.405V457.215C125.405 457.605 125.47 457.995 125.6 458.385C125.74 458.775 125.94 459.15 126.2 459.51C126.47 459.87 126.8 460.205 127.19 460.515C127.58 460.815 128.03 461.075 128.54 461.295C129.06 461.515 129.635 461.675 130.265 461.775L129.44 463.44C128.71 463.3 128.045 463.095 127.445 462.825C126.845 462.545 126.31 462.21 125.84 461.82C125.37 461.43 124.97 460.995 124.64 460.515C124.32 460.025 124.075 459.505 123.905 458.955C123.735 458.395 123.65 457.815 123.65 457.215V456.21Z" fill="#666666"/>
<path d="M309.5 441H205.5C201.082 441 197.5 444.582 197.5 449V478C197.5 482.418 201.082 486 205.5 486H309.5C313.918 486 317.5 482.418 317.5 478V449C317.5 444.582 313.918 441 309.5 441Z" fill="#4CAF50"/>
<path d="M209.819 466.185H222.404V467.805H209.819V466.185ZM215.099 463.545H217.079V466.83H215.099V463.545ZM211.244 456.33H220.979V460.965H213.239V463.29H211.259V459.405H218.999V457.92H211.244V456.33ZM211.259 462.51H221.294V464.1H211.259V462.51ZM224.908 456.705H233.698V458.295H224.908V456.705ZM223.618 465.9H236.188V467.52H223.618V465.9ZM232.648 456.705H234.643V458.355C234.643 459.005 234.633 459.665 234.613 460.335C234.603 461.005 234.563 461.72 234.493 462.48C234.433 463.24 234.313 464.1 234.133 465.06L232.138 464.88C232.318 463.99 232.438 463.17 232.498 462.42C232.568 461.67 232.608 460.965 232.618 460.305C232.638 459.635 232.648 458.985 232.648 458.355V456.705ZM246.957 455.445H248.952V465.42H246.957V455.445ZM239.697 467.49H249.312V469.095H239.697V467.49ZM239.697 464.43H241.692V468.15H239.697V464.43ZM241.392 456.33C242.102 456.33 242.742 456.48 243.312 456.78C243.882 457.08 244.332 457.495 244.662 458.025C245.002 458.555 245.172 459.165 245.172 459.855C245.172 460.525 245.002 461.13 244.662 461.67C244.332 462.2 243.882 462.62 243.312 462.93C242.742 463.23 242.102 463.38 241.392 463.38C240.682 463.38 240.042 463.23 239.472 462.93C238.902 462.62 238.447 462.2 238.107 461.67C237.777 461.13 237.612 460.525 237.612 459.855C237.612 459.165 237.777 458.555 238.107 458.025C238.447 457.495 238.902 457.08 239.472 456.78C240.042 456.48 240.682 456.33 241.392 456.33ZM241.392 458.04C241.052 458.04 240.742 458.115 240.462 458.265C240.182 458.405 239.962 458.61 239.802 458.88C239.642 459.14 239.562 459.465 239.562 459.855C239.562 460.225 239.642 460.545 239.802 460.815C239.962 461.075 240.182 461.28 240.462 461.43C240.742 461.57 241.052 461.64 241.392 461.64C241.732 461.64 242.042 461.57 242.322 461.43C242.602 461.28 242.822 461.075 242.982 460.815C243.142 460.545 243.222 460.225 243.222 459.855C243.222 459.465 243.142 459.14 242.982 458.88C242.822 458.61 242.602 458.405 242.322 458.265C242.042 458.115 241.732 458.04 241.392 458.04ZM260.111 455.445H262.106V469.335H260.111V455.445ZM261.656 460.86H264.101V462.51H261.656V460.86ZM251.141 457.485H259.241V459.075H251.141V457.485ZM255.221 459.87C255.891 459.87 256.491 460.015 257.021 460.305C257.551 460.585 257.966 460.97 258.266 461.46C258.576 461.95 258.731 462.52 258.731 463.17C258.731 463.82 258.576 464.395 258.266 464.895C257.966 465.385 257.551 465.775 257.021 466.065C256.501 466.345 255.901 466.485 255.221 466.485C254.551 466.485 253.946 466.345 253.406 466.065C252.876 465.775 252.456 465.385 252.146 464.895C251.846 464.395 251.696 463.82 251.696 463.17C251.696 462.52 251.846 461.95 252.146 461.46C252.456 460.97 252.876 460.585 253.406 460.305C253.946 460.015 254.551 459.87 255.221 459.87ZM255.221 461.49C254.901 461.49 254.621 461.555 254.381 461.685C254.141 461.815 253.951 462.005 253.811 462.255C253.671 462.505 253.601 462.81 253.601 463.17C253.601 463.52 253.671 463.825 253.811 464.085C253.951 464.335 254.141 464.53 254.381 464.67C254.621 464.8 254.901 464.865 255.221 464.865C255.531 464.865 255.806 464.8 256.046 464.67C256.286 464.53 256.476 464.335 256.616 464.085C256.756 463.825 256.826 463.52 256.826 463.17C256.826 462.81 256.756 462.505 256.616 462.255C256.476 462.005 256.286 461.815 256.046 461.685C255.806 461.555 255.531 461.49 255.221 461.49ZM254.201 455.67H256.211V458.1H254.201V455.67ZM274.644 455.415H276.624V469.35H274.644V455.415ZM272.469 460.425H275.049V462.03H272.469V460.425ZM265.479 464.505H266.619C267.379 464.505 268.089 464.495 268.749 464.475C269.419 464.455 270.074 464.42 270.714 464.37C271.354 464.31 272.009 464.225 272.679 464.115L272.859 465.735C272.169 465.845 271.494 465.93 270.834 465.99C270.174 466.05 269.499 466.09 268.809 466.11C268.129 466.13 267.399 466.14 266.619 466.14H265.479V464.505ZM265.464 456.6H271.719V461.835H267.459V464.985H265.479V460.26H269.754V458.19H265.464V456.6ZM287.678 455.415H289.688V469.305H287.678V455.415ZM289.178 460.74H291.623V462.375H289.178V460.74ZM284.033 456.855H285.998C285.998 458.245 285.798 459.56 285.398 460.8C285.008 462.04 284.358 463.18 283.448 464.22C282.548 465.25 281.328 466.15 279.788 466.92L278.663 465.405C279.883 464.775 280.888 464.065 281.678 463.275C282.478 462.485 283.068 461.59 283.448 460.59C283.838 459.58 284.033 458.455 284.033 457.215V456.855ZM279.428 456.855H285.068V458.46H279.428V456.855ZM302.182 455.43H304.177V469.32H302.182V455.43ZM298.087 456.87H300.052C300.052 457.93 299.947 458.945 299.737 459.915C299.537 460.875 299.197 461.78 298.717 462.63C298.247 463.48 297.597 464.27 296.767 465C295.947 465.72 294.922 466.38 293.692 466.98L292.642 465.405C293.982 464.755 295.047 464.04 295.837 463.26C296.637 462.47 297.212 461.58 297.562 460.59C297.912 459.59 298.087 458.47 298.087 457.23V456.87ZM293.392 456.87H299.017V458.46H293.392V456.87Z" fill="white"/>
</g>
<defs>
<filter id="filter0_d_1_131" x="21.5" y="290" width="332" height="232" filterUnits="userSpaceOnUse" color-interpolation-filters="sRGB">
<feFlood flood-opacity="0" result="BackgroundImageFix"/>
<feColorMatrix in="SourceAlpha" type="matrix" values="0 0 0 0 0 0 0 0 0 0 0 0 0 0 0 0 0 0 127 0" result="hardAlpha"/>
<feOffset/>
<feGaussianBlur stdDeviation="8"/>
<feColorMatrix type="matrix" values="0 0 0 0 0 0 0 0 0 0 0 0 0 0 0 0 0 0 1 0"/>
<feBlend mode="normal" in2="BackgroundImageFix" result="effect1_dropShadow_1_131"/>
<feBlend mode="normal" in="SourceGraphic" in2="effect1_dropShadow_1_131" result="shape"/>
</filter>
<clipPath id="clip0_1_131">
<rect width="375" height="812" fill="white"/>
</clipPath>
</defs>
</svg>
